<?xml version="1.0" encoding="UTF-8" standalone="no"?>
<svg width="14px" height="15px" viewBox="0 0 14 15" version="1.1" xmlns="http://www.w3.org/2000/svg" xmlns:xlink="http://www.w3.org/1999/xlink" xmlns:sketch="http://www.bohemiancoding.com/sketch/ns">
    <!-- Generator: Sketch 3.0.3 (7891) - http://www.bohemiancoding.com/sketch -->
    <title>Calendar Icon</title>
    <desc>Created with Sketch.</desc>
    <defs></defs>
    <g id="Welcome" stroke="none" stroke-width="1" fill="none" fill-rule="evenodd" sketch:type="MSPage">
        <g id="Static" sketch:type="MSArtboardGroup" transform="translate(-968.000000, -1141.000000)" fill="#A79D83">
            <g id="//-Body" sketch:type="MSLayerGroup" transform="translate(169.000000, 179.000000)">
                <g id="::-Aside-+-::-Primary" transform="translate(0.000000, 683.000000)" sketch:type="MSShapeGroup">
                    <g id="::-Aside" transform="translate(751.000000, 0.000000)">
                        <g class="ck-profile-donate-svg" transform="translate(13.000000, 0.000000)">
                            <g id="Exp.-Date" transform="translate(21.000000, 264.000000)">
                                <path style="fill: #198C45;" d="M25.5918593,17.0756542 L25.5918593,16.2688614 C25.5918593,15.4743875 25.0823737,15 24.2285607,15 C23.3751723,15 22.8652621,15.4743875 22.8652621,16.2688614 L22.8652621,17.0756542 L21.9418194,17.0756542 L21.9418194,16.2688614 C21.9418194,15.4743875 21.4321215,15 20.5785208,15 C19.7249201,15 19.2152222,15.4743875 19.2152222,16.2688614 L19.2152222,17.0756542 L18.2915672,17.0756542 L18.2915672,16.2688614 C18.2915672,15.4743875 17.7820816,15 16.9282686,15 C16.0748802,15 15.5651823,15.4743875 15.5651823,16.2688614 L15.5651823,17.0756542 L14,17.0756542 L14,30 L27.140271,30 L27.140271,17.0756542 L25.5918593,17.0756542 L25.5918593,17.0756542 Z M15.0951818,24.6980095 L17.4543125,24.6980095 L17.4543125,26.683672 L15.0951818,26.683672 L15.0951818,24.6980095 Z M23.6802268,22.1746938 L26.0453015,22.1746938 L26.0453015,24.3392957 L23.6802268,24.3392957 L23.6802268,22.1746938 Z M20.7498353,22.1746938 L23.3153077,22.1746938 L23.3153077,24.3392957 L20.7498353,24.3392957 L20.7498353,22.1746938 Z M17.8194439,22.1746938 L20.3849163,22.1746938 L20.3849163,24.3392957 L17.8194439,24.3392957 L17.8194439,22.1746938 Z M15.0951818,22.1746938 L17.4543125,22.1746938 L17.4543125,24.3392957 L15.0951818,24.3392957 L15.0951818,22.1746938 Z M17.8194439,24.6980095 L20.3849163,24.6980095 L20.3849163,26.683672 L17.8194439,26.683672 L17.8194439,24.6980095 Z M17.8194439,27.0421771 L20.3849163,27.0421771 L20.3849163,28.9230234 L17.8194439,28.9230234 L17.8194439,27.0421771 Z M20.7498353,27.0421771 L23.3153077,27.0421771 L23.3153077,28.9230234 L20.7498353,28.9230234 L20.7498353,27.0421771 Z M20.7498353,24.6980095 L23.3153077,24.6980095 L23.3153077,26.683672 L20.7498353,26.683672 L20.7498353,24.6980095 Z M23.6802268,24.6980095 L26.0453015,24.6980095 L26.0453015,26.683672 L23.6802268,26.683672 L23.6802268,24.6980095 Z M23.6802268,19.9476615 L26.0453015,19.9476615 L26.0453015,21.8161888 L23.6802268,21.8161888 L23.6802268,19.9476615 Z M23.5953125,16.2688614 C23.5953125,15.87674 23.7778782,15.7178452 24.2285607,15.7178452 C24.6790309,15.7178452 24.8615966,15.87674 24.8615966,16.2688614 L24.8615966,18.4269905 C24.8615966,18.8189031 24.6790309,18.9777979 24.2285607,18.9777979 C23.7778782,18.9777979 23.5953125,18.8189031 23.5953125,18.4269905 L23.5953125,16.2688614 L23.5953125,16.2688614 Z M20.7498353,19.9476615 L23.3153077,19.9476615 L23.3153077,21.8161888 L20.7498353,21.8161888 L20.7498353,19.9476615 Z M19.9452726,16.2688614 C19.9452726,15.87674 20.1280506,15.7178452 20.5785208,15.7178452 C21.028991,15.7178452 21.211769,15.87674 21.211769,16.2688614 L21.211769,18.4269905 C21.211769,18.8189031 21.028991,18.9777979 20.5785208,18.9777979 C20.1280506,18.9777979 19.9452726,18.8189031 19.9452726,18.4269905 L19.9452726,16.2688614 L19.9452726,16.2688614 Z M17.8194439,19.9476615 L20.3849163,19.9476615 L20.3849163,21.8161888 L17.8194439,21.8161888 L17.8194439,19.9476615 Z M16.2952327,16.2688614 C16.2952327,15.87674 16.4777984,15.7178452 16.9282686,15.7178452 C17.3789511,15.7178452 17.5617291,15.87674 17.5617291,16.2688614 L17.5617291,18.4269905 C17.5617291,18.8189031 17.3789511,18.9777979 16.9282686,18.9777979 C16.4777984,18.9777979 16.2952327,18.8189031 16.2952327,18.4269905 L16.2952327,16.2688614 L16.2952327,16.2688614 Z M15.0951818,19.9476615 L17.4543125,19.9476615 L17.4543125,21.8161888 L15.0951818,21.8161888 L15.0951818,19.9476615 Z M15.0951818,27.0421771 L17.4543125,27.0421771 L17.4543125,28.9230234 L15.0951818,28.9230234 L15.0951818,27.0421771 Z M23.6802268,27.0421771 L26.0453015,27.0421771 L26.0453015,28.9230234 L23.6802268,28.9230234 L23.6802268,27.0421771 Z" id="Calendar-Icon"></path>
                            </g>
                        </g>
                    </g>
                </g>
            </g>
        </g>
    </g>
</svg>