<?xml version="1.0" encoding="UTF-8" standalone="no"?>
<svg width="18px" height="15px" viewBox="0 0 18 15" version="1.1" xmlns="http://www.w3.org/2000/svg" xmlns:xlink="http://www.w3.org/1999/xlink" xmlns:sketch="http://www.bohemiancoding.com/sketch/ns">
    <!-- Generator: Sketch 3.0.4 (8053) - http://www.bohemiancoding.com/sketch -->
    <title>Camera-Icon</title>
    <desc>Created with Sketch.</desc>
    <defs></defs>
    <g id="Page-1" stroke="none" stroke-width="1" fill="none" fill-rule="evenodd" sketch:type="MSPage">
        <g id="Camera-Icon" sketch:type="MSLayerGroup" transform="translate(0.000000, 1.000000)" fill="#988C80">
            <path d="M17.2094795,1.52432665 L13.6578082,1.52432665 C13.6550959,1.51859316 13.6541096,1.51312028 13.6513973,1.50738679 L13.1419726,0.431575472 C13.0107945,0.154804245 12.663863,-0.0716686321 12.3709315,-0.0716686321 L5.53463014,-0.0716686321 C5.24169863,-0.0716686321 4.8950137,0.154804245 4.76358904,0.431575472 L4.25416438,1.50738679 C4.25145205,1.51312028 4.25046575,1.51859316 4.248,1.52432665 L0.530383562,1.52432665 C0.237452055,1.52432665 -0.00221917808,1.77738208 -0.00221917808,2.08725118 L-0.00221917808,12.7757807 C-0.00221917808,13.0853892 0.237452055,13.3387052 0.530383562,13.3387052 L17.2094795,13.3387052 C17.502411,13.3387052 17.7420822,13.0853892 17.7420822,12.7757807 L17.7420822,2.08725118 C17.7420822,1.77738208 17.502411,1.52432665 17.2094795,1.52432665 L17.2094795,1.52432665 L17.2094795,1.52432665 Z M8.88041096,11.7179517 C6.5709863,11.7179517 4.69849315,9.73911557 4.69849315,7.29743042 C4.69849315,4.85678774 6.5709863,2.87795165 8.88041096,2.87795165 C11.1898356,2.87795165 13.0628219,4.85678774 13.0628219,7.29743042 C13.0628219,9.73911557 11.1898356,11.7179517 8.88041096,11.7179517 L8.88041096,11.7179517 L8.88041096,11.7179517 Z" id="Fill-1" sketch:type="MSShapeGroup"></path>
            <path d="M8.88041096,4.4416309 C7.39035616,4.4416309 6.17794521,5.72280542 6.17794521,7.29743042 C6.17794521,8.87257665 7.39035616,10.1542724 8.88041096,10.1542724 C10.3709589,10.1542724 11.5833699,8.87257665 11.5833699,7.29743042 C11.5833699,5.72280542 10.3709589,4.4416309 8.88041096,4.4416309" id="Fill-2" sketch:type="MSShapeGroup"></path>
        </g>
    </g>
</svg>