<?xml version="1.0" encoding="UTF-8" standalone="no"?>
<svg width="16px" height="11px" viewBox="0 0 16 11" version="1.1" xmlns="http://www.w3.org/2000/svg" xmlns:xlink="http://www.w3.org/1999/xlink" xmlns:sketch="http://www.bohemiancoding.com/sketch/ns">
    <!-- Generator: Sketch 3.0.3 (7891) - http://www.bohemiancoding.com/sketch -->
    <title>Credit Card Icon</title>
    <desc>Created with Sketch.</desc>
    <defs></defs>
    <g id="Welcome" stroke="none" stroke-width="1" fill="none" fill-rule="evenodd" sketch:type="MSPage">
        <g id="Static" sketch:type="MSArtboardGroup" transform="translate(-968.000000, -1090.000000)" fill="#A79D83">
            <g id="//-Body" sketch:type="MSLayerGroup" transform="translate(169.000000, 179.000000)">
                <g id="::-Aside-+-::-Primary" transform="translate(0.000000, 683.000000)" sketch:type="MSShapeGroup">
                    <g id="::-Aside" transform="translate(751.000000, 0.000000)">
                        <g class="ck-profile-donate-svg" transform="translate(13.000000, 0.000000)">
                            <g id="Card-Number" transform="translate(21.000000, 209.000000)">
                                <path style="fill: #198C45;" d="M28.7471376,19 L15.2526406,19 C14.5639988,19 14,19.575193 14,20.2792383 L14,28.7207617 C14,29.424807 14.5639988,30 15.2526406,30 L28.7471376,30 C29.4360012,30 30,29.424807 30,28.7207617 L30,20.2792383 C30,19.575193 29.4360012,19 28.7471376,19 L28.7471376,19 Z M15.1523939,20.9554297 L28.9099276,20.9554297 L28.9099276,23.3889038 L15.1523939,23.3889038 L15.1523939,20.9554297 Z" id="Credit-Card-Icon"></path>
                            </g>
                        </g>
                    </g>
                </g>
            </g>
        </g>
    </g>
</svg>