<?xml version="1.0" encoding="utf-8"?>
<!-- Generator: Adobe Illustrator 18.0.0, SVG Export Plug-In . SVG Version: 6.00 Build 0)  -->
<!DOCTYPE svg PUBLIC "-//W3C//DTD SVG 1.1//EN" "http://www.w3.org/Graphics/SVG/1.1/DTD/svg11.dtd">
<svg version="1.1" id="Layer_1" xmlns="http://www.w3.org/2000/svg" xmlns:xlink="http://www.w3.org/1999/xlink" x="0px" y="0px"
	 viewBox="144.5 634 305.9 88.5" enable-background="new 144.5 634 305.9 88.5" xml:space="preserve">
<g id="File_labels" display="none">
	<rect x="-323.1" y="1388.9" display="inline" fill="#F1F1F2" width="1642" height="77"/>
	
		<text transform="matrix(1 0 0 1 -279.7789 1437.5116)" display="inline" fill="#A6A8AB" font-family="'MyriadPro-Regular'" font-size="34.6906">Standard Use Logo</text>
</g>
<g id="CUREkids">
</g>
<g id="CUREstore">
</g>
<g id="cure.org">
</g>
<g id="Just_Kids">
</g>
<g id="Stacked_Logo">
</g>
<g id="Logo_with_tagline">
</g>
<g id="Standard_Logo">
	<g id="New_Logo_-_Standard">
		<g>
			<path fill="#92D400" d="M450.4,690c-0.1-0.2-5.6-22.5-5.6-22.5s1.5-0.5,3.1-2.4c1-1.2,1.5-1.8,1.6-2.2c0.2-0.4,0.2-0.8-0.1-1.2
				c-0.4-0.4-1-0.6-1.2-0.7c-0.2,0-0.5,0.2-0.6,0.4c-0.1,0.2-1.5,2.5-2.8,3.5c-1,0.6-3,1-3.5,1.2c-0.5,0.2-4.1,0.6-4.7,0.8
				c-0.2,0.1-0.5,0.5-0.5,0.8s0.1,0.6,0.4,1c0.5,0.4,1,0.2,1.5,0.2c0.4,0,3.9-0.7,3.9-0.7s7,22.2,7,22.4c0.1,0.2,0.6,0.5,1,0.5
				c0.1-0.2,0.4-0.2,0.5-0.4C450.3,690.7,450.5,690.3,450.4,690z"/>
			<path fill="#92D400" d="M430.9,683.2c0.2-0.2,0.4-0.2,0.5-0.2c-0.6-1.2-1-2-0.8-3.3c0.2-1.4,0.5-4.6,0.6-7.1
				c0.1-2.7-0.5-6.7-0.5-6.7s1.4-0.8,2.1-1.9c1-1.4,1.6-2.4,2.1-3.5c-0.1-0.4-0.6-1-1.4-1.9c0.6-1,1.2-2,1.4-3.1
				c0.5-2.8,0.5-6.3,0.6-7.9c0.1-1.6,0-2,0.5-3.3c0.2-0.4,0.4-0.4,0.8-1.2s0.5-2.8,0.6-3.5c0.1-0.7-0.1-2.3-0.2-3.1
				c-0.1-0.8-0.2-1.1-0.8-0.6c-0.1-0.5,0.1-0.2-0.1-0.9c-0.2-0.7-0.8-0.6-1,0.6c0-1-0.1-1.5-0.6-1.5c-0.4,0-0.5,1-0.6,1.6
				c0-0.2,0-0.2,0-0.6c0-0.8-0.5-0.8-0.8-0.6c-0.2,0.1-0.5,2.4-0.5,3c-0.1,0.5-0.2,1.6-0.4,2.7c-0.1-0.4-0.2-0.9-0.2-1.3
				s-0.8-1.1-1.2-1s0,0.8,0,1.4c0,0.4,0,0.9-0.1,1.6s-0.1,1.2,0,1.6c0.1,0.4,0.5,1.1,1,1.4c0.2,5.1-1.4,5.4-1.9,8.6
				c-0.1,0.9-0.2,1.6-0.5,2.4c-0.2-0.1-0.4-0.2-0.5-0.2c-0.5,0.8-1,1.6-3,3.2c-0.5,0.5-1.5,0.8-2.5,1c-0.1,0.1-0.2,0.1-0.2,0.2
				c-0.1-0.2-0.2-0.5-0.4-1c0.2-0.5,0.6-1,1-1.8c1.2-1.6,1-4.3,0.8-5.8c-0.2-1.5-0.4-2-0.5-4.3s-2.7-5-5.6-5.1c-3-0.1-5.5,1.4-6,3.5
				c-0.4,1.5-0.2,2-0.2,3s0.2,1.9,0.4,2.2c0,0.2-0.6-0.2-1,0c-0.5,0.4-0.2,1.8,0,2.4c0.2,0.7,1.4,1.6,2,1.4c0.4,1.3,1.5,2.5,2,3.3
				c0.2,0.2,0.5,0.5,1,0.8c0,0.6-0.1,1-0.1,1.5c-3.6,0.6-4.7,0.4-6.1,0.7c-0.8,0.2-2.8,2.5-6.7,7c0,0.2,0,0.7,0.1,1
				c-0.2,0.4-0.6,0.8-1,1.3c-0.4,0.5-0.6,1-0.8,1.5c-0.2-0.5-0.6-1-1-1.5c-1.1-1.6-2.8-3.3-4.7-5c0.1-0.2,0.1-0.6,0.2-0.9
				c-1.4-1.2-2.8-2.3-4.7-3.4c-1-0.5-4.5,0.4-5.6,0.5c-0.2,0-0.4,0.2-0.6,0.2c0-0.2,0-0.7-0.1-1c0.2-0.2,0.6-0.6,0.9-0.8
				c0,0,0.8-1,1.1-1.3c0.2-0.4,0.5-1.4,0.8-2c0.4,0,0.6-0.2,1-0.4c0.2-0.2,0.5-0.5,0.6-1.2c0.1-0.5,0.2-0.8,0.2-1.2
				c0-0.5-0.2-0.5-0.1-0.6c0-0.1,0.6-1.6,0.6-2s0.4-1.2,0.4-2c0-0.4-0.2-1-0.2-1.5c0.1-0.4-0.2-1.4-0.6-1.6s-0.8-1-1.4-1.2
				c-0.4-0.2-0.4-0.7-1.1-0.8c-0.6-0.2-1.2-0.2-1.5-0.4c-0.2-0.1-0.8-0.6-1.5-0.6c-0.6-0.2-1-0.2-1.6,0.1c-0.5,0.2-0.6,0.4-1.2,0.4
				c-0.6,0-0.8-0.1-1.2,0.2c-0.2,0.2-1.2,0.2-1.4,0.5c-0.1,0.2-0.6,0.2-1,0.7c-0.2,0.5-1.5,1-1.5,1.9c0.1,0.8-0.2,0.8-0.6,1.8
				c-0.2,0.8-0.2,0.8-0.1,1.8c0.2,1,0,0.7,0.1,1.2c0,0.5,0.2,0.2,0.1,0.6c-0.1,0.4-0.1,1,0,1.5c0.1,0.6,0.2,1.1,0.4,1.5
				c0.1,0.4,0.2,0.7,0.6,0.8c0,0.5,0.1,1.2,0.2,1.8c0.6,1.8,1.5,2.3,2.1,2.9c-0.1,0.6-0.1,1-0.1,1.4c-0.1,0-0.2-0.1-0.4-0.1
				c-0.8-0.2-1.5-0.4-2.1-0.7c-1.4-0.5-2.3-1-4-2.8c-0.2,0.1-0.6,0.1-1,0.2c-1.2-1.5-1.9-3.6-2.5-4.5c-1.1-1.6-2-2.7-2.7-4
				c-0.4-0.8-1-2.2-1.5-2.7c-0.2-0.2-0.2-1-0.1-1.4c0.1-0.2,0.2-0.6,0.2-1.5c-0.1-0.5-0.2-1.6-0.4-2.1s0.2-1.6-0.4-1.5
				c-0.5,0.1-1,1.2-0.8,2.4c-0.1-0.5-1-0.9-1.2-2.1s-0.5-2-0.9-2c-0.6,0.1-0.4,1-0.2,1.9c-0.1-0.2-0.2-0.5-0.4-0.9
				c-0.1-0.4-0.4-1-1-0.8c-0.4,0.2-0.4,0.7-0.2,1.5c-0.1-0.4-0.2-0.5-0.6-0.4c-0.4,0.1-0.1,0.6,0.1,1.5c-0.6-0.5-0.6,0.1-0.6,0.5
				s0.6,1.9,1,3c0.2,1,0.8,1.5,1.6,2.1c0.2,0.2,0.6,0.6,0.9,0.7c0.4,0.2,0.6,0.4,0.6,0.4s0.2,1,0.6,2c0.6,1.6,0.5,3.2,1.8,6
				c1.5,3.8,2.7,4.6,3.9,5.7c0.1,0,0.1,0.2,0.1,0.2c-0.4,0.9-0.6,1.8-0.4,2.1c0.9,1.2,2.5,2,4.5,3.1c-0.1,2.1-0.8,5.9-1.2,6.8
				c-0.6,1.6-2,2.7-4,5.2s-4.3,4.2-4.7,4.5c-0.4,0.5-0.6,0.7-0.4,1c0.2,0.4,1.9,1.8,3.8,3.2c0,0,0,0,0.1,0c-1.9,1.9-4,4.3-4.1,4.5
				c-0.4-1.6-0.1-1.9-0.9-2.3c-1.2-0.7-2.1,0.2-2.6,1c-0.5,0.6-1.9,1.2-2.8,1.9c-0.6,0.5-1.1,1-1.4,1.4c-0.6,0.5-0.8,0.5-1,0.9
				c0,0.2,0.1,0.4,0.4,0.2c0,0-0.4,0.4-0.2,0.7c0.1,0.1,0.2,0.2,0.6,0.1c-0.1,0.2-0.4,0.2-0.2,0.7c0.1,0.2,0.2,0.2,0.5,0.1
				c-0.2,0.2-0.2,0.6-0.1,0.7c0.1,0.1,0.4,0.1,0.6,0.1c-0.1,0.2-0.1,0.8,0.4,0.8c0.8,0.2,1.4-0.5,1.5-0.8c0.1-0.1,0.5-0.2,0.8-0.5
				c0.6-0.7,1.5-1.6,2-2.3c0.1,1,0.2,1.5,0.8,2.4c0.5,0.8,1.8,1.6,3.5,1.6c1.8-0.2,3.4-1.4,5.4-3c1.2-0.8,2.9-2.4,4.9-3.9
				c1.9,0.8,3.8,1.5,5.6,1.8c0.5,2.2,1.2,5,1.2,5.8c-0.2,1.5-0.8,3-0.8,4.9c0.1,2.8-0.6,4.9-1.1,5.5c-0.5,0.8-1.4,0.6-1.9,1.9
				c-0.5,1.2,0,2.4,0.6,3.2s1,2.3,1,3c0,1.6,0.6,2.3,0.8,2.7c0.1,0.2,0,1.8,1.6,1.8c0.8,0,0.8-0.4,0.8-0.5c0.1,0.1,0.4,0.1,0.5,0
				c0.2-0.2,0.2-0.2,0.1-0.4c0.1,0,0.2,0,0.4,0c0.1-0.2,0.1-0.2,0.1-0.4c0.1,0.2,0.2,0,0.2,0c0.1-0.1,0.1-0.1,0.1-0.2
				c0.1,0,0.2-0.1,0.2-0.1c0.1-0.1,0.1-0.2,0-0.4c-0.2-0.2-0.5-0.6-0.5-1.1c-0.1-0.4-0.1-2-0.4-3.1c-0.2-1.1-0.8-2.2-0.6-3.2
				c0.1-1,1-2.4,2.8-6.1s2.3-5.7,2.3-7.2c0-1.1-0.1-3.5-0.2-5.4l0,0c2.1-0.1,2.9-0.4,4.3-0.6s1.5-0.4,1.2-1.4
				c-0.2-1-1.1-3.1-2.1-6.3c-1.1-3.2-2.1-7.4-2.1-9.7s0.8-5.2,1-6.7c0.2-1.5,0.4-2,0.4-2.4c0.2,0.2,1.1,0.5,2,1.2
				c0.2-0.2,0.6-0.4,1.2-0.7c1.9,1.2,2.3,2.5,4,4.3c1.5,1.5,2.5,3,3.2,4.3c0,0.5-0.1,1-0.2,1.6c-0.1,1-1.4,2.2-1.4,2.3
				c0,0.2-0.1,0.6-0.2,1.3c-0.1,0.7,0.2,2,1,3.3c1,1.4,4.2,0.7,4.2,0.2c0-0.2,0-0.5-0.1-0.6c0.8-0.6,1.8-2,1-5.6
				c-0.1-0.8-0.2-1.6-0.5-2.4c0.5-1,1-2.3,1.4-3.8c0.2-0.2,0.8-0.7,1.5-1c0.5,0.2,1.2,0.5,1.6,0.6c1-1,3.5-3.3,3.9-3.5
				c0.2,1,0.5,1.5,1.6,5c1,3.5,0.4,5.2,0,6.7c-0.2,1-0.8,3.1-1.2,3.6c0.1,0.2,0.2,0.2,0.5,0.2c-0.5,1.2-1.2,2.6-1.6,3.8
				c-1,2.4-2.3,5.4-3.5,8.2c0.5,0.4,1,0.8,1.9,1.4c-0.8,1.5-1.5,2.8-1.9,4.1c-0.6,2.4-1,6.3-1.2,8.6c-0.1,0.8-1,1.6-1.4,2.9
				c-0.2,1,0,2,0.2,2.8c0.2,0.5-0.1,1.6,0.1,3.3c0.1,1.2,0.5,2.5,1,2.8c0.1,0.2,0.1,0.2,0.2,0.2c0.1,0.1,0.2,0.4,0.4,0.4
				c0.2,0.1,0.5-0.2,0.6-0.2c0,0.2,0.2,0.2,0.5,0.2c0.2,0,0.4-0.1,0.4-0.2c0,0.2,0.2,0.2,0.5,0.2c0.2,0,0.2-0.2,0.2-0.2
				c0.1,0.2,0.4,0.2,0.6,0.2c0.2-0.1,0.2-0.2,0.4-0.2c0.5,0.4,1.4,0.2,1.5,0s-0.2-1.5-0.6-2c-0.1-0.6-0.2-1.6-0.4-2
				c-0.1-1-1-4.1-1-5.5c0-1.2,0.1-1.2,0.5-2.7c1.4-3.8,2.4-3.9,3.5-6c0.6-1.3,1.2-3.2,1.9-5.1c0.5,0,1.2,0,1.8-0.2
				c0.8-2,3.6-8,4-9.1c0.8,0.4,1.5,0.6,2.5,1.3c1,0.8,1.2,3.4,1.5,4.9c0.6,0.2,1.5,0.2,2.3,0.4c-1,1.8-0.4,3.2-3,7
				c-0.2,0.4-2.3,2-2.7,2.2c-0.5,0.2-1.5,0.6-1.4,2.4c0.1,1.4,3,1.8,4.3,3.9c0.6,1,1,3.1,2.1,4.3c1,1.2,2,1,2.7,0.6
				c0.6-0.2-0.8-1.3-1-3.8c-0.2-2.8-1.2-4.9-1.2-5.3c0-0.2,0.4-1,0.8-1.3c2-2.3,4.3-4.5,5.4-5.7c1.8-1.9,2.7-3.6,3.1-5.7
				c0.2-0.1,0.5-0.2,0.6-0.4c0.1-1.8-0.6-3.6-1.8-5.6C435.9,688.3,431.6,684.1,430.9,683.2z"/>
		</g>
		<g id="final_11_">
			<path fill="#1E8C45" d="M179.8,696.6c-8.7,0-14.1-5.9-14.1-15.6c0-9.5,5.5-15.3,14.1-15.3c3.5,0,7,1,10.4,2.5v-18.4
				c-3.9-1.6-8.3-2.4-12.8-2.4c-18.5,0-33,14.5-33,33.6c0,19.9,13,33,33,33c6.1,0,12.4-1.9,18.9-5.5c-2.9-4-4.8-9.1-5.6-15.1
				C187.2,695.7,183.6,696.6,179.8,696.6z"/>
			<path fill="#1E8C45" d="M214.7,649.1v35.6c0,8.6,1.9,12.4,8.2,12.4c4.6,0,8.1-2.4,10.4-7.2v-40.8h20.2V712h-18.6v-10h-0.2
				c-4.3,7.8-10.4,11.5-19.2,11.5c-13,0-20.8-10-20.8-27.7V649L214.7,649.1L214.7,649.1z"/>
			<path fill="#1E8C45" d="M301.7,650.7c-4.3-2.7-7.1-3.1-11.1-3.1c-5,0-12.9,4.5-14.6,13.1v-11.5h-18v62.9h18v-31.2
				c0-10,7.2-12.9,10.2-12.9c1.4,0,2.4,0.2,3.6,0.6c1.6-5.5,4.5-10.4,8.2-14.5C299.3,652.9,300.5,651.7,301.7,650.7z"/>
			<path fill="#1E8C45" d="M313.8,686.7c1.6,7.8,6.9,12.2,14.9,12.2c4.7,0,8.7-1.8,13.3-5.2l9.1,11c-7.2,6.3-15.9,9.5-25.4,9.5
				c-20.1,0-33.2-13.2-33.2-33c0-19.5,13.1-33.7,31.6-33.7c17,0,29.2,12.6,29.2,31.5v7.7H313.8L313.8,686.7z M323.6,662.9
				c-5.5,0-9.1,4.5-9.8,12.8h19.3C333,667.4,329.8,662.9,323.6,662.9z"/>
		</g>
	</g>
</g>
<g id="Clear_Space_Illustration">
</g>
<g id="CURE_UK">
</g>
<g id="CURE_Canada">
</g>
<g id="CURE_Hydrocephalus">
</g>
<g id="CURE_Partnerships__x28_sans_kids_x29_">
</g>
<g id="CURE_Partnerships">
</g>
<g id="CURE_Clubfoot">
</g>
<g id="CURE_India_Trust">
</g>
<g id="CURE_Sacramento">
</g>
<g id="CURE_Afghanistan">
</g>
<g id="CURE_CA_stacked">
</g>
<g id="CURE_Kenya_stacked">
</g>
<g id="CURE_Malawi_stacked">
</g>
<g id="CURE_Niger_stacked">
</g>
<g id="CURE_Uganda_stacked">
</g>
<g id="CURE_Zambia_stacked">
</g>
<g id="CURE_Ethiopia_stacked">
</g>
<g id="CURE_Honduras_stacked">
</g>
<g id="CURE_Afghanistan_stacked">
</g>
<g id="CURE_Sacramento_stacked">
</g>
<g id="CURE_Clubfoot_stacked">
</g>
<g id="CURE_DR_stacked">
</g>
<g id="RESOURCES">
</g>
<g id="CURE_UK_stacked">
</g>
</svg>
