<?xml version="1.0" encoding="utf-8"?>
<!-- Generator: Adobe Illustrator 18.0.0, SVG Export Plug-In . SVG Version: 6.00 Build 0)  -->
<!DOCTYPE svg PUBLIC "-//W3C//DTD SVG 1.1//EN" "http://www.w3.org/Graphics/SVG/1.1/DTD/svg11.dtd">
<svg version="1.1" xmlns="http://www.w3.org/2000/svg" xmlns:xlink="http://www.w3.org/1999/xlink" x="0px" y="0px"
	 viewBox="0 0 1136 520" enable-background="new 0 0 1136 520" xml:space="preserve">
<g id="File_labels" display="none">
	<rect y="466.7" display="inline" fill="#F1F1F2" width="1136" height="53.3"/>
	<text transform="matrix(1 0 0 1 30 500.3633)" display="inline" fill="#A6A8AB" font-family="'MyriadPro-Regular'" font-size="24">Standard Use Logo</text>
</g>
<g id="CUREkids">
</g>
<g id="CUREstore">
</g>
<g id="cure.org">
</g>
<g id="Just_Kids">
</g>
<g id="Stacked_Logo">
</g>
<g id="Logo_with_tagline">
</g>
<g id="Standard_Logo">
	<g id="New_Logo_-_Standard">
		<g>
			<path fill="#92D400" d="M991.3,264.3c-0.2-0.9-15.6-62.4-15.6-62.4s4.2-1.4,8.4-6.5c2.7-3.3,3.9-4.7,4.6-5.8
				c0.7-1.1,0.7-2.4-0.3-3.3c-1-1-2.5-1.6-3.2-1.7c-0.7-0.1-1.3,0.3-1.8,1c-0.5,0.7-3.9,7-7.7,9.8c-2.6,1.9-8.2,2.8-9.5,3.2
				c-1.3,0.4-11.6,1.4-12.9,2.2c-0.9,0.5-1.3,1.3-1.4,2.2c-0.1,0.9,0.4,2,1.1,2.5c1.4,1,2.9,0.9,3.9,0.6c1-0.3,10.6-1.8,10.6-1.8
				s19.2,61.4,19.3,62.1c0.2,0.7,1.9,1.5,2.5,1.3c0.5-0.2,1.1-0.7,1.4-1.1C991,266.2,991.5,265.2,991.3,264.3z"/>
			<path fill="#92D400" d="M937.3,245.5c0.6-0.3,1.1-0.6,1.3-0.9c-1.8-3.4-2.5-5.5-2.2-9.1c0.3-3.6,1.4-12.6,1.9-19.8
				c0.5-7.3-1.5-18.5-1.5-18.5s3.6-2.2,6-5.1c3.1-3.8,4.5-6.7,5.8-9.7c-0.5-1.2-2-3.1-3.8-5.1c1.7-2.5,3.2-5.4,3.8-8.5
				c1.6-7.8,1.4-17.4,1.7-21.9c0.3-4.6-0.1-5.5,1.6-9.3c0.7-1,1-1,2.2-3.3c1.2-2.2,1.6-7.7,1.8-9.6c0.2-1.9-0.4-6.3-0.6-8.4
				c-0.2-2.1-0.8-3-2.1-1.4c-0.2-1.4,0.2-0.8-0.3-2.6c-0.6-1.8-2.3-1.3-2.8,1.7c-0.1-2.9-0.5-4-1.7-4.2c-1-0.1-1.6,3.1-1.7,4.3
				c0-0.3,0-0.7-0.1-1.4c-0.1-2.2-1.4-2.4-2.1-1.9c-0.8,0.5-1.4,6.7-1.6,8.3c-0.2,1.6-0.8,4.4-1.2,7.3c-0.4-1.2-0.6-2.6-0.8-3.7
				c-0.1-1.1-2.1-3-3.3-2.7c-1.2,0.3,0,2.4-0.1,3.7c-0.1,1.2,0.1,2.5-0.2,4.6c-0.3,2.1-0.2,3.3,0,4.4c0.2,1.2,1.5,3,2.8,3.8
				c0.9,14-3.7,14.8-5.2,23.9c-0.4,2.5-0.8,4.6-1.3,6.5c-0.7-0.5-1.2-0.7-1.4-0.8c-1.4,2.2-3.1,4.3-8.3,8.8c-1.6,1.4-4.1,2.3-7,3
				c-0.3,0.2-0.6,0.4-0.9,0.6c-0.4-0.7-0.8-1.6-1.2-2.5c0.8-1.3,1.7-2.9,3-4.7c3.2-4.5,3-11.9,2.2-15.8c-0.8-3.9-1.2-5.4-1.3-11.8
				c-0.2-6.3-7.5-13.6-15.6-14c-8.1-0.5-15.1,3.7-16.6,9.8c-1.1,4.2-0.8,5.5-0.7,8.3c0.1,2.7,0.9,5.1,1,6c0.1,0.9-1.7-0.7-2.7,0.1
				c-1.4,1.2-0.7,4.9,0.1,6.7c0.7,1.9,3.7,4.6,5.5,3.8c1,3.7,3.9,7.1,5.6,9.3c0.6,0.7,1.6,1.5,2.6,2.2c-0.1,1.3-0.2,2.7-0.4,3.9
				c-10,1.6-13.1,1.2-17,2c-2.1,0.4-7.7,6.9-18.6,19.2c-0.1,0.8,0,1.7,0.2,2.6c-0.8,1.2-1.7,2.4-2.5,3.7c-1,1.5-1.8,2.9-2.4,4.2
				c-0.9-1.5-1.7-2.8-2.5-3.9c-2.9-4.3-7.9-9.3-12.9-13.6c0.3-0.9,0.5-1.8,0.6-2.7c-3.6-3.3-7.8-6.4-13.1-9.1
				c-2.5-1.3-12.1,1-15.7,1.5c-0.6,0.1-1.2,0.2-1.8,0.3c-0.1-0.9-0.1-1.8-0.2-2.7c0.9-0.8,1.7-1.7,2.6-2.4c0,0,2.4-2.6,3.1-3.8
				c0.7-1.2,1.6-3.8,2.2-5.5c1,0,2-0.5,2.6-1c0.8-0.7,1.4-1.6,1.9-3.3c0.5-1.6,0.7-2.2,0.6-3.5c-0.1-1.3-0.6-1.4-0.5-1.7
				c0.1-0.4,1.8-4.4,1.9-5.4c0.1-1.1,1-3.3,1-5.5c0-1-0.8-3-0.6-4.2c0.2-1.2-0.7-3.8-1.8-4.5c-1.2-0.8-2.1-2.9-3.6-3.2
				c-1.1-0.3-1.1-1.7-3-2.3c-2-0.6-3.3-0.7-4-1.1c-0.7-0.4-2.2-1.9-4.1-2c-1.9-0.2-2.9-0.4-4.3,0.3c-1.3,0.7-1.8,1-3.3,1.1
				c-1.5,0.1-2.1-0.2-3.4,0.3c-0.9,0.4-3.4,0.9-3.7,1.6c-0.3,0.8-1.9,0.5-2.8,1.9c-0.9,1.4-4.1,2.7-4,5.1c0.2,2.4-0.7,2.3-1.3,4.7
				c-0.6,2.4-0.8,2.3-0.2,4.9c0.6,2.6,0,1.9,0.2,3.4c0.1,1.5,0.6,0.9,0.4,2c-0.2,1.1-0.2,2.7,0,4.2c0.2,1.5,0.8,3.1,1,4
				c0.3,1,0.7,1.9,1.5,2.2c0.1,1.4,0.3,3.5,0.7,4.8c1.7,4.7,4.2,6.3,5.8,8.3c-0.2,1.3-0.4,2.6-0.5,3.6c-0.4-0.1-0.7-0.2-1-0.3
				c-2.2-0.7-3.9-1-5.9-1.8c-3.8-1.6-6.2-3.1-11.1-7.9c-0.9,0.2-1.7,0.5-2.5,0.9c-3.5-3.9-5.3-9.9-7.1-12.7
				c-2.9-4.6-5.4-7.5-7.3-11.1c-1.2-2.2-3-5.8-4-7.5c-0.6-0.8-0.8-2.9-0.3-3.6c0.5-0.8,0.8-1.7,0.6-3.9c-0.2-1.5-0.8-4.5-1.1-6
				c-0.4-1.5,0.7-4.4-1.1-3.9c-1.3,0.3-2.9,3.3-2.3,6.8c-0.5-1.3-2.6-2.6-3.2-5.9c-0.6-3.2-1.4-5.6-2.6-5.4
				c-1.3,0.2-1.1,2.5-0.8,5.3c-0.5-0.7-0.8-1.6-1.2-2.6c-0.4-1-1.2-2.6-2.5-2.3c-1.2,0.3-1,1.9-0.6,4.1c-0.5-1-0.9-1.5-2-1.1
				c-1.1,0.4-0.2,2,0.5,4.1c-1.7-1.4-1.8,0.4-1.8,1.4c0,1,1.8,5.2,2.6,8.2c0.8,2.9,2.3,4.2,4.5,6.1c0.7,0.6,1.9,1.5,2.5,1.8
				c1.1,0.7,1.3,1.2,1.3,1.2s0.8,2.6,2,5.7c1.7,4.5,1.6,8.9,4.7,16.8c4.2,10.4,7.4,12.7,10.7,15.7c0.2,0.1,0.3,0.3,0.4,0.4
				c-1,2.6-1.4,4.9-1.2,6c2.7,3.5,6.9,5.6,12.8,8.5c-0.2,6-2.3,16.2-3.4,18.9c-1.7,4.4-5.4,7.3-11,14.6
				c-5.6,7.3-11.7,11.4-12.9,12.7c-1.2,1.3-1.8,1.8-1,2.9c0.8,1.1,5.2,4.8,10.4,9c0.1,0,0.1,0.1,0.2,0.1
				c-5.1,5.3-11.2,11.8-11.6,12.4c-1.1-4.3-0.4-5.1-2.6-6.3c-3.2-1.7-5.8,0.7-7.2,2.6c-1.5,2-5.3,3.5-7.9,5.2
				c-2,1.4-2.8,2.8-3.7,3.7c-1.7,1.6-2.3,1.3-2.5,2.7c-0.1,0.4,0.4,1,1,0.8c-0.1,0.1-1,1-0.8,1.9c0.2,0.5,0.8,0.7,1.3,0.5
				c-0.2,0.2-1.1,0.8-0.8,1.7c0.2,0.6,0.8,0.7,1.3,0.5c-0.6,0.4-0.8,1.5-0.4,2c0.4,0.5,1.1,0.3,1.3,0.2c-0.2,0.6-0.4,2.1,1,2.4
				c2.1,0.4,3.6-1.6,4.1-2.1c0.4-0.3,1.3-0.6,2.1-1.4c1.9-1.8,4.1-4.5,5.6-6.2c0.4,2.6,0.8,4.2,2.2,6.5c1.4,2.3,4.9,4.6,9.6,4.4
				c4.7-0.2,9.1-3.6,15-8.1c3.2-2.4,8.3-6.6,13.2-10.8c5.2,2.3,10.4,3.9,15.5,4.9c1.4,6.1,3.2,13.6,3.4,16.1
				c-0.6,3.9-2.4,8.2-2.2,13.5c0.3,7.8-1.5,13.4-2.9,15.4c-1.5,2.1-3.7,2-5.1,5.3c-1.4,3.3-0.1,6.5,1.9,8.9c2,2.4,2.7,6.2,2.7,8.1
				c-0.1,4.6,1.9,6.4,2.3,7.5c0.2,0.8-0.1,4.8,4.5,4.9c2.1,0.1,2.4-1.1,2.3-1.6c0.5,0.3,1.1,0.2,1.6,0.1c0.7-0.3,0.7-0.9,0.5-1.1
				c0.3,0.1,0.8,0.1,1-0.1c0.4-0.2,0.5-0.6,0.5-1c0.2,0.2,0.8,0.1,0.9-0.1c0.2-0.3,0.2-0.3,0.2-0.8c0.4,0,0.7-0.2,0.8-0.4
				c0.3-0.4,0.2-0.9,0.1-1.2c-0.8-0.6-1.4-1.6-1.6-2.9c-0.2-1.2-0.4-5.7-1-8.6c-0.6-2.8-2.1-5.8-1.8-8.9c0.3-3.1,3.1-6.6,7.9-17
				c4.8-10.5,6.2-15.7,6.2-19.9c0-2.9-0.3-9.7-0.6-14.8c0,0,0.1,0,0.1,0c6.1-0.2,8-1,11.7-1.7c3.7-0.8,4.2-1,3.3-3.8
				c-0.9-2.8-3.1-8.7-6-17.5c-2.8-8.9-5.9-20.5-5.9-26.7c0-6.2,2.3-14.5,3-18.4c0.7-3.9,1.1-5.7,1.2-6.6c0.8,0.2,3.1,1.3,5.7,3.4
				c0.9-0.4,2-1,3.2-1.9c5.2,3.4,6.3,7.2,11.1,11.8c4.1,3.9,7.1,8.2,8.9,11.7c-0.1,1.4-0.3,2.8-0.6,4.3c-0.5,2.6-3.7,5.8-3.8,6.4
				c-0.1,0.6-0.3,1.7-0.8,3.7c-0.4,2,0.6,5.7,3.1,9.4c2.5,3.7,11.4,1.9,11.6,0.7c0.1-0.7-0.1-1.3-0.4-1.8c2.4-1.8,4.7-5.7,2.9-15.7
				c-0.4-2.4-0.9-4.6-1.5-6.7c1.4-2.9,3-6.3,3.8-10.5c0.9-0.6,2.3-1.7,3.9-2.9c1.6,0.9,3.2,1.5,4.5,1.7c2.5-3,9.8-9.4,10.7-9.8
				c0.9,2.5,1.4,3.9,4.3,13.8c2.9,9.9,1.2,14.5,0.1,18.6c-0.8,2.8-2.3,8.4-3.5,10.1c0.3,0.3,0.8,0.7,1.3,0.9
				c-1.5,3.5-3.3,7.2-4.5,10.3c-2.7,6.6-6.2,14.7-9.7,22.8c1.3,1.2,3,2.4,5.1,3.6c-2.1,4.2-4,7.8-5.1,11.5c-2,6.8-2.5,17.5-3.2,23.6
				c-0.3,2.3-2.5,4.4-3.7,8c-0.9,2.5-0.1,5.5,0.9,7.7c0.6,1.4-0.2,4.4,0.3,9.1c0.4,3.5,1.4,6.9,2.6,7.9c0.4,0.4,0.4,0.5,0.8,0.8
				c0.2,0.3,0.7,1,1.2,1.1c0.8,0.2,1.6-0.2,1.8-0.5c0.1,0.4,0.8,0.9,1.3,0.8c0.7,0,1-0.2,1.2-0.6c0.1,0.4,0.8,0.9,1.6,0.8
				c0.8-0.1,0.8-0.7,0.9-0.8c0.3,0.4,1.1,0.8,1.9,0.7c0.8-0.2,0.9-0.6,1.1-0.9c1.4,1.2,3.7,0.7,4.2,0c0.5-0.7-0.9-3.9-1.9-5.4
				c-0.5-2-0.8-4.3-1-5.5c-0.3-3-2.8-11.6-3-15.2c-0.1-3.5,0.2-3.5,1.5-7.3c3.7-10.4,6.8-10.8,9.8-16.8c1.9-3.7,3.4-9,5.1-14.1
				c1.6,0,3.3,0,5-0.2c2.4-5.7,10-22.3,11.3-25.3c2.2,1,4.1,1.7,6.9,3.8c3.1,2.4,3.5,9.2,4,13.5c1.8,0.6,4,0.9,6.4,1
				c-2.6,4.9-1.2,9-8,19.2c-0.6,1-6.3,5.4-7.6,6c-1.3,0.6-4,2-3.8,6.5c0.2,3.8,8.2,5,11.7,10.9c1.9,3.1,2.9,8.5,6,12
				c3.1,3.5,5.6,2.7,7.3,1.8c1.7-0.9-2.1-3.8-2.7-10.5c-0.7-7.9-3.3-13.9-3.5-14.8c-0.1-0.9,1.2-2.5,2.2-3.7
				c5.6-6.3,11.7-12.2,14.9-15.7c4.7-5.2,7.4-9.9,8.5-15.5c0.8-0.4,1.5-0.7,1.8-1.1c0.3-4.7-1.9-10.2-4.9-15.5
				C951.2,259.4,939.4,248,937.3,245.5z"/>
		</g>
		<g id="final_11_">
			<path fill="#1E8C45" d="M242.4,282.5c-24.1,0-38.8-16.4-38.8-42.9c0-26.2,15.1-42.5,38.8-42.5c9.5,0,19.3,2.5,28.9,7.1v-50.8
				c-10.9-4.3-23-6.6-35.4-6.6c-51.1,0-91.2,40.1-91.2,93.2c0,54.8,36,91.2,91.2,91.2c16.7,0,34.1-5.1,52.2-15.2
				c-8-11.1-13.2-25.2-15.5-41.9C263,279.8,252.7,282.5,242.4,282.5z"/>
			<path fill="#1E8C45" d="M339.1,151.2v98.6c0,23.7,5.3,34.3,22.5,34.3c12.7,0,22.1-6.5,29-20V151.2h55.6v174.2h-51.5V298h-0.4
				c-11.9,21.7-29,31.9-53.2,31.9c-36,0-57.7-27.8-57.7-76.5V151.2H339.1z"/>
			<path fill="#1E8C45" d="M580,155.5c-11.8-7.4-19.8-8.7-30.7-8.7c-13.9,0-35.8,12.4-40.5,36.4v-31.9h-49.9v174.2h49.9v-86.5
				c0-28,20-35.8,28.2-35.8c3.6,0,6.8,0.6,10.2,1.7c4.6-15.2,12.3-28.9,22.7-40.1C573.1,161.4,576.4,158.3,580,155.5z"/>
			<path fill="#1E8C45" d="M613.3,255.1c4.5,21.7,18.8,33.9,41.3,33.9c13.1,0,24.1-4.9,36.8-14.3l25.4,30.3
				c-20,17.6-43.8,26.2-70.3,26.2c-55.6,0-92-36.4-92-91.2c0-54,36.4-93.2,87.1-93.2c47,0,81,34.8,81,87.1v21.3H613.3z M640.3,189.3
				c-15.1,0-25.4,12.7-27,35.2h53.6C666.4,201.5,657.4,189.3,640.3,189.3z"/>
		</g>
	</g>
</g>
<g id="Clear_Space_Illustration">
</g>
<g id="CURE_UK">
</g>
<g id="CURE_Canada">
</g>
<g id="CURE_Hydrocephalus">
</g>
<g id="CURE_Partnerships__x28_sans_kids_x29_">
</g>
<g id="CURE_Partnerships">
</g>
<g id="CURE_Clubfoot">
</g>
<g id="CURE_India_Trust">
</g>
<g id="CURE_Sacramento">
</g>
<g id="CURE_Afghanistan">
</g>
<g id="CURE_CA_stacked">
</g>
<g id="CURE_Kenya_stacked">
</g>
<g id="CURE_Malawi_stacked">
</g>
<g id="CURE_Niger_stacked">
</g>
<g id="CURE_Uganda_stacked">
</g>
<g id="CURE_Zambia_stacked">
</g>
<g id="CURE_Ethiopia_stacked">
</g>
<g id="CURE_Honduras_stacked">
</g>
<g id="CURE_Afghanistan_stacked">
</g>
<g id="CURE_Sacramento_stacked">
</g>
<g id="CURE_Clubfoot_stacked">
</g>
<g id="CURE_DR_stacked">
</g>
<g id="RESOURCES">
</g>
<g id="CURE_UK_stacked">
</g>
</svg>
