<?xml version="1.0" encoding="UTF-8" standalone="no"?>
<svg width="307px" height="89px" viewBox="0 0 307 89" version="1.1" xmlns="http://www.w3.org/2000/svg" xmlns:xlink="http://www.w3.org/1999/xlink" xmlns:sketch="http://www.bohemiancoding.com/sketch/ns">
    <!-- Generator: Sketch 3.0.4 (8053) - http://www.bohemiancoding.com/sketch -->
    <title>CURE Logo</title>
    <desc>Created with Sketch.</desc>
    <defs></defs>
    <g id="Page-1" stroke="none" stroke-width="1" fill="none" fill-rule="evenodd" sketch:type="MSPage">
        <g id="CURE-Logo" sketch:type="MSLayerGroup">
            <path d="M306.4,56 C306.3,55.8 300.8,33.5 300.8,33.5 C300.8,33.5 302.3,33 303.9,31.1 C304.9,29.9 305.4,29.3 305.5,28.9 C305.7,28.5 305.7,28.1 305.4,27.7 C305,27.3 304.4,27.1 304.2,27 C304,27 303.7,27.2 303.6,27.4 C303.5,27.6 302.1,29.9 300.8,30.9 C299.8,31.5 297.8,31.9 297.3,32.1 C296.8,32.3 293.2,32.7 292.6,32.9 C292.4,33 292.1,33.4 292.1,33.7 C292.1,34 292.2,34.3 292.5,34.7 C293,35.1 293.5,34.9 294,34.9 C294.4,34.9 297.9,34.2 297.9,34.2 C297.9,34.2 304.9,56.4 304.9,56.6 C305,56.8 305.5,57.1 305.9,57.1 C306,56.9 306.3,56.9 306.4,56.7 C306.3,56.7 306.5,56.3 306.4,56 Z M286.9,49.2 C287.1,49 287.3,49 287.4,49 C286.8,47.8 286.4,47 286.6,45.7 C286.8,44.3 287.1,41.1 287.2,38.6 C287.3,35.9 286.7,31.9 286.7,31.9 C286.7,31.9 288.1,31.1 288.8,30 C289.8,28.6 290.4,27.6 290.9,26.5 C290.8,26.1 290.3,25.5 289.5,24.6 C290.1,23.6 290.7,22.6 290.9,21.5 C291.4,18.7 291.4,15.2 291.5,13.6 C291.6,12 291.5,11.6 292,10.3 C292.2,9.9 292.4,9.9 292.8,9.1 C293.2,8.3 293.3,6.3 293.4,5.6 C293.5,4.9 293.3,3.3 293.2,2.5 C293.1,1.7 293,1.4 292.4,1.9 C292.3,1.4 292.5,1.7 292.3,1 C292.1,0.3 291.5,0.4 291.3,1.6 C291.3,0.6 291.2,0.1 290.7,0.1 C290.3,0.1 290.2,1.1 290.1,1.7 L290.1,1.1 C290.1,0.3 289.6,0.3 289.3,0.5 C289.1,0.6 288.8,2.9 288.8,3.5 C288.7,4 288.6,5.1 288.4,6.2 C288.3,5.8 288.2,5.3 288.2,4.9 C288.2,4.5 287.4,3.8 287,3.9 C286.6,4 287,4.7 287,5.3 C287,5.7 287,6.2 286.9,6.9 C286.8,7.6 286.8,8.1 286.9,8.5 C287,8.9 287.4,9.6 287.9,9.9 C288.1,15 286.5,15.3 286,18.5 C285.9,19.4 285.8,20.1 285.5,20.9 C285.3,20.8 285.1,20.7 285,20.7 C284.5,21.5 284,22.3 282,23.9 C281.5,24.4 280.5,24.7 279.5,24.9 C279.4,25 279.3,25 279.3,25.1 C279.2,24.9 279.1,24.6 278.9,24.1 C279.1,23.6 279.5,23.1 279.9,22.3 C281.1,20.7 280.9,18 280.7,16.5 C280.5,15 280.3,14.5 280.2,12.2 C280.1,9.9 277.5,7.2 274.6,7.1 C271.6,7 269.1,8.5 268.6,10.6 C268.2,12.1 268.4,12.6 268.4,13.6 C268.4,14.6 268.6,15.5 268.8,15.8 C268.8,16 268.2,15.6 267.8,15.8 C267.3,16.2 267.6,17.6 267.8,18.2 C268,18.9 269.2,19.8 269.8,19.6 C270.2,20.9 271.3,22.1 271.8,22.9 C272,23.1 272.3,23.4 272.8,23.7 C272.8,24.3 272.7,24.7 272.7,25.2 C269.1,25.8 268,25.6 266.6,25.9 C265.8,26.1 263.8,28.4 259.9,32.9 C259.9,33.1 259.9,33.6 260,33.9 C259.8,34.3 259.4,34.7 259,35.2 C258.6,35.7 258.4,36.2 258.2,36.7 C258,36.2 257.6,35.7 257.2,35.2 C256.1,33.6 254.4,31.9 252.5,30.2 C252.6,30 252.6,29.6 252.7,29.3 C251.3,28.1 249.9,27 248,25.9 C247,25.4 243.5,26.3 242.4,26.4 C242.2,26.4 242,26.6 241.8,26.6 C241.8,26.4 241.8,25.9 241.7,25.6 C241.9,25.4 242.3,25 242.6,24.8 C242.6,24.8 243.4,23.8 243.7,23.5 C243.9,23.1 244.2,22.1 244.5,21.5 C244.9,21.5 245.1,21.3 245.5,21.1 C245.7,20.9 246,20.6 246.1,19.9 C246.2,19.4 246.3,19.1 246.3,18.7 C246.3,18.2 246.1,18.2 246.2,18.1 C246.2,18 246.8,16.5 246.8,16.1 C246.8,15.7 247.2,14.9 247.2,14.1 C247.2,13.7 247,13.1 247,12.6 C247.1,12.2 246.8,11.2 246.4,11 C246,10.8 245.6,10 245,9.8 C244.6,9.6 244.6,9.1 243.9,9 C243.3,8.8 242.7,8.8 242.4,8.6 C242.2,8.5 241.6,8 240.9,8 C240.3,7.8 239.9,7.8 239.3,8.1 C238.8,8.3 238.7,8.5 238.1,8.5 C237.5,8.5 237.3,8.4 236.9,8.7 C236.7,8.9 235.7,8.9 235.5,9.2 C235.4,9.4 234.9,9.4 234.5,9.9 C234.3,10.4 233,10.9 233,11.8 C233.1,12.6 232.8,12.6 232.4,13.6 C232.2,14.4 232.2,14.4 232.3,15.4 C232.5,16.4 232.3,16.1 232.4,16.6 C232.4,17.1 232.6,16.8 232.5,17.2 C232.4,17.6 232.4,18.2 232.5,18.7 C232.6,19.3 232.7,19.8 232.9,20.2 C233,20.6 233.1,20.9 233.5,21 C233.5,21.5 233.6,22.2 233.7,22.8 C234.3,24.6 235.2,25.1 235.8,25.7 C235.7,26.3 235.7,26.7 235.7,27.1 C235.6,27.1 235.5,27 235.3,27 C234.5,26.8 233.8,26.6 233.2,26.3 C231.8,25.8 230.9,25.3 229.2,23.5 C229,23.6 228.6,23.6 228.2,23.7 C227,22.2 226.3,20.1 225.7,19.2 C224.6,17.6 223.7,16.5 223,15.2 C222.6,14.4 222,13 221.5,12.5 C221.3,12.3 221.3,11.5 221.4,11.1 C221.5,10.9 221.6,10.5 221.6,9.6 C221.5,9.1 221.4,8 221.2,7.5 C221,7 221.4,5.9 220.8,6 C220.3,6.1 219.8,7.2 220,8.4 C219.9,7.9 219,7.5 218.8,6.3 C218.6,5.1 218.3,4.3 217.9,4.3 C217.3,4.4 217.5,5.3 217.7,6.2 C217.6,6 217.5,5.7 217.3,5.3 C217.2,4.9 216.9,4.3 216.3,4.5 C215.9,4.7 215.9,5.2 216.1,6 C216,5.6 215.9,5.5 215.5,5.6 C215.1,5.7 215.4,6.2 215.6,7.1 C215,6.6 215,7.2 215,7.6 C215,8 215.6,9.5 216,10.6 C216.2,11.6 216.8,12.1 217.6,12.7 C217.8,12.9 218.2,13.3 218.5,13.4 C218.9,13.6 219.1,13.8 219.1,13.8 C219.1,13.8 219.3,14.8 219.7,15.8 C220.3,17.4 220.2,19 221.5,21.8 C223,25.6 224.2,26.4 225.4,27.5 C225.5,27.5 225.5,27.7 225.5,27.7 C225.1,28.6 224.9,29.5 225.1,29.8 C226,31 227.6,31.8 229.6,32.9 C229.5,35 228.8,38.8 228.4,39.7 C227.8,41.3 226.4,42.4 224.4,44.9 C222.4,47.4 220.1,49.1 219.7,49.4 C219.3,49.9 219.1,50.1 219.3,50.4 C219.5,50.8 221.2,52.2 223.1,53.6 L223.2,53.6 C221.3,55.5 219.2,57.9 219.1,58.1 C218.7,56.5 219,56.2 218.2,55.8 C217,55.1 216.1,56 215.6,56.8 C215.1,57.4 213.7,58 212.8,58.7 C212.2,59.2 211.7,59.7 211.4,60.1 C210.8,60.6 210.6,60.6 210.4,61 C210.4,61.2 210.5,61.4 210.8,61.2 C210.8,61.2 210.4,61.6 210.6,61.9 C210.7,62 210.8,62.1 211.2,62 C211.1,62.2 210.8,62.2 211,62.7 C211.1,62.9 211.2,62.9 211.5,62.8 C211.3,63 211.3,63.4 211.4,63.5 C211.5,63.6 211.8,63.6 212,63.6 C211.9,63.8 211.9,64.4 212.4,64.4 C213.2,64.6 213.8,63.9 213.9,63.6 C214,63.5 214.4,63.4 214.7,63.1 C215.3,62.4 216.2,61.5 216.7,60.8 C216.8,61.8 216.9,62.3 217.5,63.2 C218,64 219.3,64.8 221,64.8 C222.8,64.6 224.4,63.4 226.4,61.8 C227.6,61 229.3,59.4 231.3,57.9 C233.2,58.7 235.1,59.4 236.9,59.7 C237.4,61.9 238.1,64.7 238.1,65.5 C237.9,67 237.3,68.5 237.3,70.4 C237.4,73.2 236.7,75.3 236.2,75.9 C235.7,76.7 234.8,76.5 234.3,77.8 C233.8,79 234.3,80.2 234.9,81 C235.5,81.8 235.9,83.3 235.9,84 C235.9,85.6 236.5,86.3 236.7,86.7 C236.8,86.9 236.7,88.5 238.3,88.5 C239.1,88.5 239.1,88.1 239.1,88 C239.2,88.1 239.5,88.1 239.6,88 C239.8,87.8 239.8,87.8 239.7,87.6 L240.1,87.6 C240.2,87.4 240.2,87.4 240.2,87.2 C240.3,87.4 240.4,87.2 240.4,87.2 C240.5,87.1 240.5,87.1 240.5,87 C240.6,87 240.7,86.9 240.7,86.9 C240.8,86.8 240.8,86.7 240.7,86.5 C240.5,86.3 240.2,85.9 240.2,85.4 C240.1,85 240.1,83.4 239.8,82.3 C239.6,81.2 239,80.1 239.2,79.1 C239.3,78.1 240.2,76.7 242,73 C243.8,69.3 244.3,67.3 244.3,65.8 C244.3,64.7 244.2,62.3 244.1,60.4 C246.2,60.3 247,60 248.4,59.8 C249.8,59.6 249.9,59.4 249.6,58.4 C249.4,57.4 248.5,55.3 247.5,52.1 C246.4,48.9 245.4,44.7 245.4,42.4 C245.4,40.1 246.2,37.2 246.4,35.7 C246.6,34.2 246.8,33.7 246.8,33.3 C247,33.5 247.9,33.8 248.8,34.5 C249,34.3 249.4,34.1 250,33.8 C251.9,35 252.3,36.3 254,38.1 C255.5,39.6 256.5,41.1 257.2,42.4 C257.2,42.9 257.1,43.4 257,44 C256.9,45 255.6,46.2 255.6,46.3 C255.6,46.5 255.5,46.9 255.4,47.6 C255.3,48.3 255.6,49.6 256.4,50.9 C257.4,52.3 260.6,51.6 260.6,51.1 C260.6,50.9 260.6,50.6 260.5,50.5 C261.3,49.9 262.3,48.5 261.5,44.9 C261.4,44.1 261.3,43.3 261,42.5 C261.5,41.5 262,40.2 262.4,38.7 C262.6,38.5 263.2,38 263.9,37.7 C264.4,37.9 265.1,38.2 265.5,38.3 C266.5,37.3 269,35 269.4,34.8 C269.6,35.8 269.9,36.3 271,39.8 C272,43.3 271.4,45 271,46.5 C270.8,47.5 270.2,49.6 269.8,50.1 C269.9,50.3 270,50.3 270.3,50.3 C269.8,51.5 269.1,52.9 268.7,54.1 C267.7,56.5 266.4,59.5 265.2,62.3 C265.7,62.7 266.2,63.1 267.1,63.7 C266.3,65.2 265.6,66.5 265.2,67.8 C264.6,70.2 264.2,74.1 264,76.4 C263.9,77.2 263,78 262.6,79.3 C262.4,80.3 262.6,81.3 262.8,82.1 C263,82.6 262.7,83.7 262.9,85.4 C263,86.6 263.4,87.9 263.9,88.2 C264,88.4 264,88.4 264.1,88.4 C264.2,88.5 264.3,88.8 264.5,88.8 C264.7,88.9 265,88.6 265.1,88.6 C265.1,88.8 265.3,88.8 265.6,88.8 C265.8,88.8 266,88.7 266,88.6 C266,88.8 266.2,88.8 266.5,88.8 C266.7,88.8 266.7,88.6 266.7,88.6 C266.8,88.8 267.1,88.8 267.3,88.8 C267.5,88.7 267.5,88.6 267.7,88.6 C268.2,89 269.1,88.8 269.2,88.6 C269.3,88.4 269,87.1 268.6,86.6 C268.5,86 268.4,85 268.2,84.6 C268.1,83.6 267.2,80.5 267.2,79.1 C267.2,77.9 267.3,77.9 267.7,76.4 C269.1,72.6 270.1,72.5 271.2,70.4 C271.8,69.1 272.4,67.2 273.1,65.3 C273.6,65.3 274.3,65.3 274.9,65.1 C275.7,63.1 278.5,57.1 278.9,56 C279.7,56.4 280.4,56.6 281.4,57.3 C282.4,58.1 282.6,60.7 282.9,62.2 C283.5,62.4 284.4,62.4 285.2,62.6 C284.2,64.4 284.8,65.8 282.2,69.6 C282,70 279.9,71.6 279.5,71.8 C279,72 278,72.4 278.1,74.2 C278.2,75.6 281.1,76 282.4,78.1 C283,79.1 283.4,81.2 284.5,82.4 C285.5,83.6 286.5,83.4 287.2,83 C287.8,82.8 286.4,81.7 286.2,79.2 C286,76.4 285,74.3 285,73.9 C285,73.7 285.4,72.9 285.8,72.6 C287.8,70.3 290.1,68.1 291.2,66.9 C293,65 293.9,63.3 294.3,61.2 C294.5,61.1 294.8,61 294.9,60.8 C295,59 294.3,57.2 293.1,55.2 C291.9,54.3 287.6,50.1 286.9,49.2 Z" id="Shape" fill="#92D400" sketch:type="MSShapeGroup"></path>
            <path d="M35.8,62.6 C27.1,62.6 21.7,56.7 21.7,47 C21.7,37.5 27.2,31.7 35.8,31.7 C39.3,31.7 42.8,32.7 46.2,34.2 L46.2,15.8 C42.3,14.2 37.9,13.4 33.4,13.4 C14.9,13.4 0.4,27.9 0.4,47 C0.4,66.9 13.4,80 33.4,80 C39.5,80 45.8,78.1 52.3,74.5 C49.4,70.5 47.5,65.4 46.7,59.4 C43.2,61.7 39.6,62.6 35.8,62.6 Z M70.7,15.1 L70.7,50.7 C70.7,59.3 72.6,63.1 78.9,63.1 C83.5,63.1 87,60.7 89.3,55.9 L89.3,15.1 L109.5,15.1 L109.5,78 L90.9,78 L90.9,68 L90.7,68 C86.4,75.8 80.3,79.5 71.5,79.5 C58.5,79.5 50.7,69.5 50.7,51.8 L50.7,15 L70.7,15.1 Z M157.7,16.7 C153.4,14 150.6,13.6 146.6,13.6 C141.6,13.6 133.7,18.1 132,26.7 L132,15.2 L114,15.2 L114,78.1 L132,78.1 L132,46.9 C132,36.9 139.2,34 142.2,34 C143.6,34 144.6,34.2 145.8,34.6 C147.4,29.1 150.3,24.2 154,20.1 C155.3,18.9 156.5,17.7 157.7,16.7 Z M169.8,52.7 C171.4,60.5 176.7,64.9 184.7,64.9 C189.4,64.9 193.4,63.1 198,59.7 L207.1,70.7 C199.9,77 191.2,80.2 181.7,80.2 C161.6,80.2 148.5,67 148.5,47.2 C148.5,27.7 161.6,13.5 180.1,13.5 C197.1,13.5 209.3,26.1 209.3,45 L209.3,52.7 L169.8,52.7 Z M179.6,28.9 C174.1,28.9 170.5,33.4 169.8,41.7 L189.1,41.7 C189,33.4 185.8,28.9 179.6,28.9 L179.6,28.9 Z" id="Shape" fill="#1E8C45" sketch:type="MSShapeGroup"></path>
        </g>
    </g>
</svg>