<?xml version="1.0" encoding="UTF-8" standalone="no"?>
<svg width="20px" height="13px" viewBox="0 0 20 13" version="1.1" xmlns="http://www.w3.org/2000/svg" xmlns:xlink="http://www.w3.org/1999/xlink" xmlns:sketch="http://www.bohemiancoding.com/sketch/ns">
    <!-- Generator: Sketch 3.0.4 (8053) - http://www.bohemiancoding.com/sketch -->
    <title>Fill-1</title>
    <desc>Created with Sketch.</desc>
    <defs></defs>
    <g id="Page-1" stroke="none" stroke-width="1" fill="none" fill-rule="evenodd" sketch:type="MSPage">
        <path d="M12.4360417,10.6718491 L9.96915278,10.6718491 L9.96915278,7.44045283 C9.77601389,7.39132075 9.57720833,7.3469434 9.36943056,7.31139623 C9.84968056,6.81803774 10.2137639,6.04709434 10.5872917,5.13373585 C10.8040417,4.60437736 10.7669722,4.15313208 10.7669722,3.51056604 C10.7669722,3.03577358 10.8604722,2.27411321 10.7374583,1.85524528 C10.3228472,0.440603774 9.27640278,0.0502641509 8.04933333,0.0502641509 C6.82179167,0.0502641509 5.77369444,0.442415094 5.36002778,1.85977358 C5.23819444,2.2770566 5.33145833,3.03713208 5.33145833,3.51056604 C5.33145833,4.15449057 5.29509722,4.60732075 5.51231944,5.13758491 C5.88938889,6.0554717 6.24780556,6.82573585 6.72616667,7.31660377 C4.86254167,7.64513208 3.60359722,8.5770566 2.75383333,8.94022642 C0.99575,9.69192453 0.98725,10.5149434 0.98725,10.5149434 L0.98725,11.9130566 L12.4360417,11.9116981 L12.4360417,10.6718491 L12.4360417,10.6718491 Z M18.0290417,7.67456604 L15.5623889,7.67456604 L15.5623889,5.3085283 L13.6158889,5.3085283 L13.6158889,7.67456604 L11.1487639,7.67456604 L11.1487639,9.54067925 L13.6158889,9.54067925 L13.6158889,11.9062642 L15.5623889,11.9062642 L15.5623889,9.54067925 L18.0290417,9.54090566 L18.0290417,7.67456604 L18.0290417,7.67456604 Z" id="Fill-1" fill="#FFFFFF" sketch:type="MSShapeGroup"></path>
    </g>
</svg>