<?xml version="1.0" encoding="utf-8"?>
<!-- Generator: Adobe Illustrator 18.0.0, SVG Export Plug-In . SVG Version: 6.00 Build 0)  -->
<!DOCTYPE svg PUBLIC "-//W3C//DTD SVG 1.1//EN" "http://www.w3.org/Graphics/SVG/1.1/DTD/svg11.dtd">
<svg version="1.1" id="Layer_1" xmlns="http://www.w3.org/2000/svg" xmlns:xlink="http://www.w3.org/1999/xlink" x="0px" y="0px"
	 viewBox="0 0 268.2 77.4" enable-background="new 0 0 268.2 77.4" xml:space="preserve">
<path fill-rule="evenodd" clip-rule="evenodd" fill="none" d="M-1306.8-7954.2H626.4c3,0,5.4,2.4,5.4,5.4v763.2c0,3-2.4,5.4-5.4,5.4
	h-1933.2c-3,0-5.4-2.4-5.4-5.4v-763.2C-1312.2-7951.8-1309.8-7954.2-1306.8-7954.2z"/>
<path fill-rule="evenodd" clip-rule="evenodd" fill="none" d="M-1303.2-7959.6h82.8c3,0,5.4,2.4,5.4,5.4v82.8c0,3-2.4,5.4-5.4,5.4
	h-82.8c-3,0-5.4-2.4-5.4-5.4v-82.8C-1308.6-7957.2-1306.2-7959.6-1303.2-7959.6z"/>
<path fill-rule="evenodd" clip-rule="evenodd" fill="#544B43" d="M268,49.1c-0.1,0.1-0.3,0.3-0.4,0.4c-0.2,0.1-0.7-0.2-0.8-0.4
	c0-0.2-6.1-19.4-6.1-19.4s-3,0.5-3.4,0.6c-0.3,0.1-0.8,0.1-1.2-0.2c-0.2-0.2-0.4-0.5-0.4-0.8c0-0.3,0.2-0.5,0.5-0.7
	c0.4-0.2,3.7-0.6,4.1-0.7c0.4-0.1,2.2-0.4,3-1c1.2-0.9,2.3-2.9,2.4-3.1c0.1-0.2,0.3-0.3,0.6-0.3c0.2,0,0.7,0.2,1,0.5
	c0.3,0.3,0.3,0.7,0.1,1c-0.2,0.3-0.6,0.8-1.5,1.8c-1.3,1.6-2.6,2-2.6,2s4.9,19.2,4.9,19.5C268.3,48.7,268.1,49,268,49.1z M256.4,7.7
	c-0.4,0.7-0.5,0.7-0.7,1c-0.5,1.2-0.4,1.5-0.5,2.9c-0.1,1.4,0,4.4-0.6,6.9c-0.2,1-0.7,1.9-1.2,2.7c0.6,0.6,1,1.2,1.2,1.6
	c-0.4,0.9-0.9,1.9-1.8,3c-0.8,0.9-1.9,1.6-1.9,1.6s0.6,3.5,0.5,5.8c-0.2,2.3-0.5,5.1-0.6,6.2c-0.1,1.1,0.1,1.8,0.7,2.8
	c-0.1,0.1-0.2,0.2-0.4,0.3c0.7,0.8,4.4,4.3,5.3,5.9c0.9,1.6,1.7,3.4,1.6,4.9c-0.1,0.1-0.3,0.2-0.6,0.3c-0.4,1.8-1.2,3.2-2.7,4.8
	c-1,1.1-2.9,2.9-4.7,4.9c-0.3,0.4-0.7,0.9-0.7,1.1c0,0.3,0.9,2.1,1.1,4.6c0.2,2.1,1.4,3,0.9,3.3c-0.5,0.3-1.3,0.5-2.3-0.6
	c-1-1.1-1.3-2.8-1.9-3.8c-1.1-1.8-3.6-2.2-3.7-3.4c-0.1-1.4,0.8-1.9,1.2-2c0.4-0.2,2.2-1.6,2.4-1.9c2.2-3.2,1.7-4.5,2.5-6
	c-0.8,0-1.5-0.1-2-0.3c-0.2-1.3-0.3-3.5-1.3-4.2c-0.9-0.7-1.5-0.9-2.2-1.2c-0.4,0.9-2.8,6.1-3.6,7.9c-0.5,0.1-1.1,0.1-1.6,0.1
	c-0.5,1.6-1,3.3-1.6,4.4c-0.9,1.9-1.9,2-3.1,5.3c-0.4,1.2-0.5,1.2-0.5,2.3c0,1.1,0.8,3.8,0.9,4.7c0,0.4,0.1,1.1,0.3,1.7
	c0.3,0.5,0.8,1.5,0.6,1.7c-0.1,0.2-0.9,0.4-1.3,0c0,0.1-0.1,0.2-0.3,0.3c-0.3,0-0.5-0.1-0.6-0.2c0,0.1-0.1,0.2-0.3,0.3
	c-0.2,0-0.5-0.1-0.5-0.2c0,0.1-0.2,0.2-0.4,0.2c-0.2,0-0.4-0.1-0.4-0.3c0,0.1-0.3,0.2-0.6,0.1c-0.1,0-0.3-0.3-0.4-0.4
	c-0.1-0.1-0.1-0.1-0.3-0.2c-0.4-0.3-0.7-1.4-0.8-2.5c-0.2-1.5,0.1-2.4-0.1-2.8c-0.3-0.7-0.6-1.6-0.3-2.4c0.4-1.1,1.1-1.8,1.2-2.5
	c0.2-1.9,0.4-5.3,1-7.4c0.3-1.2,1-2.3,1.6-3.6c-0.7-0.4-1.2-0.8-1.6-1.1c1.1-2.5,2.2-5,3.1-7.1c0.4-1,1-2.1,1.4-3.2
	c-0.2-0.1-0.3-0.2-0.4-0.3c0.4-0.5,0.9-2.3,1.1-3.2c0.3-1.3,0.9-2.7,0-5.8c-0.9-3.1-1.1-3.5-1.4-4.3c-0.3,0.1-2.6,2.1-3.4,3.1
	c-0.4,0-0.9-0.2-1.4-0.5c-0.5,0.4-0.9,0.7-1.2,0.9c-0.2,1.3-0.7,2.4-1.2,3.3c0.2,0.7,0.4,1.3,0.5,2.1c0.6,3.1-0.2,4.4-0.9,4.9
	c0.1,0.2,0.2,0.3,0.1,0.6c0,0.4-2.9,0.9-3.7-0.2c-0.8-1.1-1.1-2.3-1-2.9c0.1-0.6,0.2-1,0.2-1.2c0-0.2,1-1.2,1.2-2
	c0.1-0.5,0.2-0.9,0.2-1.4c-0.6-1.1-1.5-2.4-2.8-3.7c-1.5-1.4-1.9-2.6-3.5-3.7c-0.4,0.3-0.7,0.5-1,0.6c-0.8-0.7-1.5-1-1.8-1.1
	c0,0.3-0.2,0.8-0.4,2.1c-0.2,1.2-0.9,3.8-0.9,5.8c0,1.9,1,5.6,1.9,8.3c0.9,2.8,1.6,4.6,1.9,5.5c0.3,0.9,0.1,1-1,1.2
	c-1.2,0.2-1.8,0.5-3.7,0.5c0,0,0,0,0,0c0.1,1.6,0.2,3.7,0.2,4.6c0,1.3-0.4,2.9-2,6.2c-1.5,3.3-2.4,4.4-2.5,5.3
	c-0.1,1,0.4,1.9,0.6,2.8c0.2,0.9,0.3,2.3,0.3,2.7c0.1,0.4,0.3,0.7,0.5,0.9c0.1,0.1,0.1,0.2,0,0.4c0,0.1-0.1,0.1-0.3,0.1
	c0,0.2,0,0.2-0.1,0.2c0,0.1-0.2,0.1-0.3,0c0,0.1,0,0.2-0.1,0.3c-0.1,0-0.2,0-0.3,0c0,0.1,0.1,0.3-0.2,0.3c-0.1,0.1-0.4,0.1-0.5,0
	c0.1,0.2,0,0.5-0.7,0.5c-1.4-0.1-1.3-1.3-1.4-1.5c-0.1-0.3-0.8-0.9-0.7-2.3c0-0.6-0.2-1.8-0.9-2.5c-0.6-0.8-1-1.7-0.6-2.8
	c0.4-1,1.1-1,1.6-1.7c0.5-0.7,1-2.4,0.9-4.8c-0.1-1.7,0.5-3,0.7-4.2c0-0.8-0.6-3.1-1.1-5c-1.6-0.3-3.2-0.8-4.9-1.5
	c-1.6,1.3-3.2,2.6-4.2,3.4c-1.9,1.4-3.2,2.5-4.7,2.5c-1.5,0.1-2.6-0.6-3-1.4c-0.4-0.7-0.5-1.2-0.7-2c-0.5,0.6-1.2,1.4-1.8,2
	c-0.3,0.2-0.5,0.3-0.7,0.4c-0.1,0.2-0.6,0.8-1.3,0.6c-0.5-0.1-0.4-0.5-0.3-0.7c-0.1,0-0.3,0.1-0.4-0.1c-0.1-0.2-0.1-0.5,0.1-0.6
	c-0.2,0.1-0.4,0-0.4-0.1c-0.1-0.3,0.2-0.5,0.3-0.5c-0.2,0.1-0.4,0-0.4-0.2c-0.1-0.3,0.2-0.6,0.2-0.6c-0.2,0-0.3-0.1-0.3-0.3
	c0.1-0.4,0.3-0.4,0.8-0.9c0.3-0.3,0.5-0.7,1.2-1.2c0.8-0.6,2-1,2.5-1.6c0.4-0.6,1.3-1.3,2.3-0.8c0.7,0.4,0.5,0.6,0.8,2
	c0.1-0.2,2-2.2,3.7-3.9c0,0,0,0-0.1,0c-1.6-1.3-3-2.5-3.3-2.8c-0.2-0.3,0-0.5,0.3-0.9c0.4-0.4,2.3-1.7,4.1-4
	c1.8-2.3,2.9-3.2,3.5-4.6c0.3-0.9,1-4.1,1.1-5.9c-1.9-0.9-3.2-1.6-4.1-2.7c-0.1-0.3,0.1-1,0.4-1.9c0,0-0.1-0.1-0.1-0.1
	c-1-0.9-2.1-1.7-3.4-4.9c-1-2.4-1-3.8-1.5-5.2c-0.4-1-0.6-1.8-0.6-1.8s-0.1-0.2-0.4-0.4c-0.2-0.1-0.6-0.4-0.8-0.6
	c-0.7-0.6-1.2-1-1.4-1.9c-0.3-0.9-0.8-2.2-0.8-2.6c0-0.3,0-0.9,0.6-0.4c-0.2-0.6-0.5-1.2-0.2-1.3c0.3-0.1,0.5,0,0.6,0.3
	c-0.1-0.7-0.2-1.2,0.2-1.3c0.4-0.1,0.7,0.4,0.8,0.7c0.1,0.3,0.2,0.6,0.4,0.8c-0.1-0.9-0.2-1.6,0.2-1.7c0.4,0,0.6,0.7,0.8,1.7
	c0.2,1,0.9,1.4,1,1.8c-0.2-1.1,0.3-2,0.7-2.1c0.6-0.1,0.2,0.7,0.3,1.2c0.1,0.5,0.3,1.4,0.4,1.9c0.1,0.7,0,1-0.2,1.2
	c-0.1,0.2-0.1,0.9,0.1,1.1c0.3,0.5,0.9,1.6,1.3,2.3c0.6,1.1,1.4,2,2.3,3.5c0.6,0.9,1.1,2.8,2.2,4c0.3-0.1,0.5-0.2,0.8-0.3
	c1.6,1.5,2.3,2,3.5,2.5c0.6,0.3,1.2,0.3,1.9,0.6c0.1,0,0.2,0.1,0.3,0.1c0-0.3,0.1-0.7,0.2-1.1c-0.5-0.6-1.3-1.1-1.8-2.6
	c-0.1-0.4-0.2-1.1-0.2-1.5c-0.2-0.1-0.4-0.4-0.5-0.7c-0.1-0.3-0.3-0.8-0.3-1.3c-0.1-0.5-0.1-1,0-1.3c0.1-0.4-0.1-0.2-0.1-0.6
	c0-0.5,0.1-0.2,0-1.1c-0.2-0.8-0.1-0.8,0.1-1.5c0.2-0.7,0.5-0.7,0.4-1.5c-0.1-0.7,1-1.1,1.3-1.6c0.3-0.4,0.8-0.3,0.9-0.6
	c0.1-0.2,0.9-0.4,1.2-0.5c0.4-0.2,0.6-0.1,1.1-0.1c0.5,0,0.6-0.1,1-0.3c0.4-0.2,0.7-0.2,1.4-0.1c0.6,0.1,1.1,0.5,1.3,0.6
	c0.2,0.1,0.7,0.2,1.3,0.3c0.6,0.2,0.6,0.6,1,0.7c0.5,0.1,0.8,0.8,1.2,1c0.4,0.2,0.6,1,0.6,1.4c-0.1,0.4,0.2,1,0.2,1.3
	c0,0.7-0.3,1.4-0.3,1.7c0,0.3-0.6,1.6-0.6,1.7c0,0.1,0.1,0.2,0.1,0.5c0,0.4,0,0.6-0.2,1.1c-0.2,0.5-0.3,0.8-0.6,1
	c-0.2,0.1-0.5,0.3-0.8,0.3c-0.2,0.5-0.5,1.3-0.7,1.7c-0.2,0.4-1,1.2-1,1.2c-0.3,0.2-0.6,0.5-0.8,0.7c0,0.3,0,0.6,0.1,0.8
	c0.2,0,0.4-0.1,0.6-0.1c1.1-0.1,4.2-0.9,5-0.5c1.7,0.8,3,1.8,4.1,2.8c0,0.3-0.1,0.6-0.2,0.8c1.6,1.4,3.2,2.9,4.1,4.3
	c0.2,0.4,0.5,0.8,0.8,1.2c0.2-0.4,0.5-0.9,0.8-1.3c0.3-0.4,0.5-0.8,0.8-1.2c-0.1-0.3-0.1-0.5-0.1-0.8c3.5-3.8,5.2-5.9,5.9-6
	c1.2-0.2,2.2-0.1,5.4-0.6c0.1-0.4,0.1-0.8,0.1-1.2c-0.3-0.2-0.6-0.5-0.8-0.7c-0.6-0.7-1.5-1.8-1.8-2.9c-0.6,0.3-1.5-0.6-1.7-1.2
	c-0.2-0.6-0.5-1.7,0-2.1c0.3-0.3,0.9,0.2,0.9,0c0-0.3-0.3-1-0.3-1.9c0-0.9-0.1-1.3,0.2-2.6c0.5-1.9,2.7-3.2,5.3-3.1
	c2.6,0.1,4.9,2.4,4.9,4.4c0.1,2,0.2,2.5,0.4,3.7c0.3,1.2,0.3,3.6-0.7,5c-0.4,0.6-0.7,1.1-0.9,1.5c0.1,0.3,0.3,0.6,0.4,0.8
	c0.1-0.1,0.2-0.1,0.3-0.2c0.9-0.2,1.7-0.5,2.2-0.9c1.6-1.4,2.2-2.1,2.6-2.7c0.1,0,0.2,0.1,0.5,0.2c0.1-0.6,0.3-1.2,0.4-2
	c0.5-2.8,1.9-3.1,1.7-7.5c-0.4-0.2-0.8-0.8-0.9-1.2c-0.1-0.4-0.1-0.7,0-1.4c0.1-0.7,0-1.1,0.1-1.5c0-0.4-0.3-1.1,0-1.1
	c0.4-0.1,1,0.5,1,0.8c0,0.3,0.1,0.8,0.2,1.2c0.1-0.9,0.3-1.8,0.4-2.3c0.1-0.5,0.3-2.4,0.5-2.6c0.2-0.2,0.6-0.1,0.7,0.6
	c0,0.2,0,0.4,0,0.4c0.1-0.4,0.2-1.4,0.6-1.4c0.4,0,0.5,0.4,0.5,1.3c0.2-1,0.7-1.1,0.9-0.5c0.2,0.6,0,0.4,0.1,0.8
	c0.4-0.5,0.6-0.2,0.7,0.4c0.1,0.7,0.3,2,0.2,2.6C256.9,5.3,256.8,7,256.4,7.7z M161.5,56.1c4.1,0,7.6-1.5,11.7-4.5l8,9.5
	c-6.3,5.5-13.9,8.2-22.3,8.2c-17.6,0-29.1-11.4-29.1-28.5c0-16.9,11.5-29.2,27.6-29.2c14.9,0,25.6,10.9,25.6,27.3v6.7h-34.6
	C149.9,52.3,154.4,56.1,161.5,56.1z M165.4,35.9c-0.1-7.2-3-11-8.4-11c-4.8,0-8,4-8.5,11H165.4z M127.5,29.8
	c-1.1-0.4-2.1-0.5-3.2-0.5c-2.6,0-8.9,2.4-8.9,11.2v27.1H99.5V13h15.8v10c1.5-7.5,8.4-11.4,12.8-11.4c3.4,0,6,0.4,9.7,2.7
	c-1.1,0.9-2.2,1.9-3.2,2.9C131.4,20.7,129,25,127.5,29.8z M79.2,58.9h-0.1c-3.8,6.8-9.2,10-16.8,10C50.8,68.9,44,60.2,44,45V13h17.6
	v30.8c0,7.4,1.7,10.7,7.1,10.7c4,0,7-2,9.2-6.3V13h17.6v54.5H79.2V58.9z M31,54.1c3.3,0,6.5-0.8,9.6-2.7c0.7,5.2,2.4,9.6,4.9,13.1
	c-5.7,3.2-11.2,4.8-16.5,4.8C11.4,69.3,0,57.9,0,40.8c0-16.6,12.7-29.2,28.9-29.2c3.9,0,7.8,0.7,11.2,2.1v15.9
	c-3-1.4-6.1-2.2-9.1-2.2c-7.5,0-12.3,5.1-12.3,13.3C18.7,49,23.3,54.1,31,54.1z"/>
</svg>
