<?xml version="1.0" encoding="UTF-8" standalone="no"?>
<svg width="269px" height="80px" viewBox="0 0 269 80" version="1.1" xmlns="http://www.w3.org/2000/svg" xmlns:xlink="http://www.w3.org/1999/xlink" xmlns:sketch="http://www.bohemiancoding.com/sketch/ns">
    <!-- Generator: Sketch 3.0.4 (8053) - http://www.bohemiancoding.com/sketch -->
    <title>Shape</title>
    <desc>Created with Sketch.</desc>
    <defs></defs>
    <g id="Page-1" stroke="none" stroke-width="1" fill="none" fill-rule="evenodd" sketch:type="MSPage">
        <path d="M268,50.1 C267.9,50.2 267.7,50.4 267.6,50.5 C267.4,50.6 266.9,50.3 266.8,50.1 C266.8,49.9 260.7,30.7 260.7,30.7 C260.7,30.7 257.7,31.2 257.3,31.3 C257,31.4 256.5,31.4 256.1,31.1 C255.9,30.9 255.7,30.6 255.7,30.3 C255.7,30 255.9,29.8 256.2,29.6 C256.6,29.4 259.9,29 260.3,28.9 C260.7,28.8 262.5,28.5 263.3,27.9 C264.5,27 265.6,25 265.7,24.8 C265.8,24.6 266,24.5 266.3,24.5 C266.5,24.5 267,24.7 267.3,25 C267.6,25.3 267.6,25.7 267.4,26 C267.2,26.3 266.8,26.8 265.9,27.8 C264.6,29.4 263.3,29.8 263.3,29.8 C263.3,29.8 268.2,49 268.2,49.3 C268.3,49.7 268.1,50 268,50.1 L268,50.1 Z M256.4,8.7 C256,9.4 255.9,9.4 255.7,9.7 C255.2,10.9 255.3,11.2 255.2,12.6 C255.1,14 255.2,17 254.6,19.5 C254.4,20.5 253.9,21.4 253.4,22.2 C254,22.8 254.4,23.4 254.6,23.8 C254.2,24.7 253.7,25.7 252.8,26.8 C252,27.7 250.9,28.4 250.9,28.4 C250.9,28.4 251.5,31.9 251.4,34.2 C251.2,36.5 250.9,39.3 250.8,40.4 C250.7,41.5 250.9,42.2 251.5,43.2 C251.4,43.3 251.3,43.4 251.1,43.5 C251.8,44.3 255.5,47.8 256.4,49.4 C257.3,51 258.1,52.8 258,54.3 C257.9,54.4 257.7,54.5 257.4,54.6 C257,56.4 256.2,57.8 254.7,59.4 C253.7,60.5 251.8,62.3 250,64.3 C249.7,64.7 249.3,65.2 249.3,65.4 C249.3,65.7 250.2,67.5 250.4,70 C250.6,72.1 251.8,73 251.3,73.3 C250.8,73.6 250,73.8 249,72.7 C248,71.6 247.7,69.9 247.1,68.9 C246,67.1 243.5,66.7 243.4,65.5 C243.3,64.1 244.2,63.6 244.6,63.5 C245,63.3 246.8,61.9 247,61.6 C249.2,58.4 248.7,57.1 249.5,55.6 C248.7,55.6 248,55.5 247.5,55.3 C247.3,54 247.2,51.8 246.2,51.1 C245.3,50.4 244.7,50.2 244,49.9 C243.6,50.8 241.2,56 240.4,57.8 C239.9,57.9 239.3,57.9 238.8,57.9 C238.3,59.5 237.8,61.2 237.2,62.3 C236.3,64.2 235.3,64.3 234.1,67.6 C233.7,68.8 233.6,68.8 233.6,69.9 C233.6,71 234.4,73.7 234.5,74.6 C234.5,75 234.6,75.7 234.8,76.3 C235.1,76.8 235.6,77.8 235.4,78 C235.3,78.2 234.5,78.4 234.1,78 C234.1,78.1 234,78.2 233.8,78.3 C233.5,78.3 233.3,78.2 233.2,78.1 C233.2,78.2 233.1,78.3 232.9,78.4 C232.7,78.4 232.4,78.3 232.4,78.2 C232.4,78.3 232.2,78.4 232,78.4 C231.8,78.4 231.6,78.3 231.6,78.1 C231.6,78.2 231.3,78.3 231,78.2 C230.9,78.2 230.7,77.9 230.6,77.8 C230.5,77.7 230.5,77.7 230.3,77.6 C229.9,77.3 229.6,76.2 229.5,75.1 C229.3,73.6 229.6,72.7 229.4,72.3 C229.1,71.6 228.8,70.7 229.1,69.9 C229.5,68.8 230.2,68.1 230.3,67.4 C230.5,65.5 230.7,62.1 231.3,60 C231.6,58.8 232.3,57.7 232.9,56.4 C232.2,56 231.7,55.6 231.3,55.3 C232.4,52.8 233.5,50.3 234.4,48.2 C234.8,47.2 235.4,46.1 235.8,45 C235.6,44.9 235.5,44.8 235.4,44.7 C235.8,44.2 236.3,42.4 236.5,41.5 C236.8,40.2 237.4,38.8 236.5,35.7 C235.6,32.6 235.4,32.2 235.1,31.4 C234.8,31.5 232.5,33.5 231.7,34.5 C231.3,34.5 230.8,34.3 230.3,34 C229.8,34.4 229.4,34.7 229.1,34.9 C228.9,36.2 228.4,37.3 227.9,38.2 C228.1,38.9 228.3,39.5 228.4,40.3 C229,43.4 228.2,44.7 227.5,45.2 C227.6,45.4 227.7,45.5 227.6,45.8 C227.6,46.2 224.7,46.7 223.9,45.6 C223.1,44.5 222.8,43.3 222.9,42.7 C223,42.1 223.1,41.7 223.1,41.5 C223.1,41.3 224.1,40.3 224.3,39.5 C224.4,39 224.5,38.6 224.5,38.1 C223.9,37 223,35.7 221.7,34.4 C220.2,33 219.8,31.8 218.2,30.7 C217.8,31 217.5,31.2 217.2,31.3 C216.4,30.6 215.7,30.3 215.4,30.2 C215.4,30.5 215.2,31 215,32.3 C214.8,33.5 214.1,36.1 214.1,38.1 C214.1,40 215.1,43.7 216,46.4 C216.9,49.2 217.6,51 217.9,51.9 C218.2,52.8 218,52.9 216.9,53.1 C215.7,53.3 215.1,53.6 213.2,53.6 L213.2,53.6 C213.3,55.2 213.4,57.3 213.4,58.2 C213.4,59.5 213,61.1 211.4,64.4 C209.9,67.7 209,68.8 208.9,69.7 C208.8,70.7 209.3,71.6 209.5,72.5 C209.7,73.4 209.8,74.8 209.8,75.2 C209.9,75.6 210.1,75.9 210.3,76.1 C210.4,76.2 210.4,76.3 210.3,76.5 C210.3,76.6 210.2,76.6 210,76.6 C210,76.8 210,76.8 209.9,76.8 C209.9,76.9 209.7,76.9 209.6,76.8 C209.6,76.9 209.6,77 209.5,77.1 L209.2,77.1 C209.2,77.2 209.3,77.4 209,77.4 C208.9,77.5 208.6,77.5 208.5,77.4 C208.6,77.6 208.5,77.9 207.8,77.9 C206.4,77.8 206.5,76.6 206.4,76.4 C206.3,76.1 205.6,75.5 205.7,74.1 C205.7,73.5 205.5,72.3 204.8,71.6 C204.2,70.8 203.8,69.9 204.2,68.8 C204.6,67.8 205.3,67.8 205.8,67.1 C206.3,66.4 206.8,64.7 206.7,62.3 C206.6,60.6 207.2,59.3 207.4,58.1 C207.4,57.3 206.8,55 206.3,53.1 C204.7,52.8 203.1,52.3 201.4,51.6 C199.8,52.9 198.2,54.2 197.2,55 C195.3,56.4 194,57.5 192.5,57.5 C191,57.6 189.9,56.9 189.5,56.1 C189.1,55.4 189,54.9 188.8,54.1 C188.3,54.7 187.6,55.5 187,56.1 C186.7,56.3 186.5,56.4 186.3,56.5 C186.2,56.7 185.7,57.3 185,57.1 C184.5,57 184.6,56.6 184.7,56.4 C184.6,56.4 184.4,56.5 184.3,56.3 C184.2,56.1 184.2,55.8 184.4,55.7 C184.2,55.8 184,55.7 184,55.6 C183.9,55.3 184.2,55.1 184.3,55.1 C184.1,55.2 183.9,55.1 183.9,54.9 C183.8,54.6 184.1,54.3 184.1,54.3 C183.9,54.3 183.8,54.2 183.8,54 C183.9,53.6 184.1,53.6 184.6,53.1 C184.9,52.8 185.1,52.4 185.8,51.9 C186.6,51.3 187.8,50.9 188.3,50.3 C188.7,49.7 189.6,49 190.6,49.5 C191.3,49.9 191.1,50.1 191.4,51.5 C191.5,51.3 193.4,49.3 195.1,47.6 C195.1,47.6 195.1,47.6 195,47.6 C193.4,46.3 192,45.1 191.7,44.8 C191.5,44.5 191.7,44.3 192,43.9 C192.4,43.5 194.3,42.2 196.1,39.9 C197.9,37.6 199,36.7 199.6,35.3 C199.9,34.4 200.6,31.2 200.7,29.4 C198.8,28.5 197.5,27.8 196.6,26.7 C196.5,26.4 196.7,25.7 197,24.8 L196.9,24.7 C195.9,23.8 194.8,23 193.5,19.8 C192.5,17.4 192.5,16 192,14.6 C191.6,13.6 191.4,12.8 191.4,12.8 C191.4,12.8 191.3,12.6 191,12.4 C190.8,12.3 190.4,12 190.2,11.8 C189.5,11.2 189,10.8 188.8,9.9 C188.5,9 188,7.7 188,7.3 C188,7 188,6.4 188.6,6.9 C188.4,6.3 188.1,5.7 188.4,5.6 C188.7,5.5 188.9,5.6 189,5.9 C188.9,5.2 188.8,4.7 189.2,4.6 C189.6,4.5 189.9,5 190,5.3 C190.1,5.6 190.2,5.9 190.4,6.1 C190.3,5.2 190.2,4.5 190.6,4.4 C191,4.4 191.2,5.1 191.4,6.1 C191.6,7.1 192.3,7.5 192.4,7.9 C192.2,6.8 192.7,5.9 193.1,5.8 C193.7,5.7 193.3,6.5 193.4,7 C193.5,7.5 193.7,8.4 193.8,8.9 C193.9,9.6 193.8,9.9 193.6,10.1 C193.5,10.3 193.5,11 193.7,11.2 C194,11.7 194.6,12.8 195,13.5 C195.6,14.6 196.4,15.5 197.3,17 C197.9,17.9 198.4,19.8 199.5,21 C199.8,20.9 200,20.8 200.3,20.7 C201.9,22.2 202.6,22.7 203.8,23.2 C204.4,23.5 205,23.5 205.7,23.8 C205.8,23.8 205.9,23.9 206,23.9 C206,23.6 206.1,23.2 206.2,22.8 C205.7,22.2 204.9,21.7 204.4,20.2 C204.3,19.8 204.2,19.1 204.2,18.7 C204,18.6 203.8,18.3 203.7,18 C203.6,17.7 203.4,17.2 203.4,16.7 C203.3,16.2 203.3,15.7 203.4,15.4 C203.5,15 203.3,15.2 203.3,14.8 C203.3,14.3 203.4,14.6 203.3,13.7 C203.1,12.9 203.2,12.9 203.4,12.2 C203.6,11.5 203.9,11.5 203.8,10.7 C203.7,10 204.8,9.6 205.1,9.1 C205.4,8.7 205.9,8.8 206,8.5 C206.1,8.3 206.9,8.1 207.2,8 C207.6,7.8 207.8,7.9 208.3,7.9 C208.8,7.9 208.9,7.8 209.3,7.6 C209.7,7.4 210,7.4 210.7,7.5 C211.3,7.6 211.8,8 212,8.1 C212.2,8.2 212.7,8.3 213.3,8.4 C213.9,8.6 213.9,9 214.3,9.1 C214.8,9.2 215.1,9.9 215.5,10.1 C215.9,10.3 216.1,11.1 216.1,11.5 C216,11.9 216.3,12.5 216.3,12.8 C216.3,13.5 216,14.2 216,14.5 C216,14.8 215.4,16.1 215.4,16.2 C215.4,16.3 215.5,16.4 215.5,16.7 C215.5,17.1 215.5,17.3 215.3,17.8 C215.1,18.3 215,18.6 214.7,18.8 C214.5,18.9 214.2,19.1 213.9,19.1 C213.7,19.6 213.4,20.4 213.2,20.8 C213,21.2 212.2,22 212.2,22 C211.9,22.2 211.6,22.5 211.4,22.7 C211.4,23 211.4,23.3 211.5,23.5 C211.7,23.5 211.9,23.4 212.1,23.4 C213.2,23.3 216.3,22.5 217.1,22.9 C218.8,23.7 220.1,24.7 221.2,25.7 C221.2,26 221.1,26.3 221,26.5 C222.6,27.9 224.2,29.4 225.1,30.8 C225.3,31.2 225.6,31.6 225.9,32 C226.1,31.6 226.4,31.1 226.7,30.7 C227,30.3 227.2,29.9 227.5,29.5 C227.4,29.2 227.4,29 227.4,28.7 C230.9,24.9 232.6,22.8 233.3,22.7 C234.5,22.5 235.5,22.6 238.7,22.1 C238.8,21.7 238.8,21.3 238.8,20.9 C238.5,20.7 238.2,20.4 238,20.2 C237.4,19.5 236.5,18.4 236.2,17.3 C235.6,17.6 234.7,16.7 234.5,16.1 C234.3,15.5 234,14.4 234.5,14 C234.8,13.7 235.4,14.2 235.4,14 C235.4,13.7 235.1,13 235.1,12.1 C235.1,11.2 235,10.8 235.3,9.5 C235.8,7.6 238,6.3 240.6,6.4 C243.2,6.5 245.5,8.8 245.5,10.8 C245.6,12.8 245.7,13.3 245.9,14.5 C246.2,15.7 246.2,18.1 245.2,19.5 C244.8,20.1 244.5,20.6 244.3,21 C244.4,21.3 244.6,21.6 244.7,21.8 C244.8,21.7 244.9,21.7 245,21.6 C245.9,21.4 246.7,21.1 247.2,20.7 C248.8,19.3 249.4,18.6 249.8,18 C249.9,18 250,18.1 250.3,18.2 C250.4,17.6 250.6,17 250.7,16.2 C251.2,13.4 252.6,13.1 252.4,8.7 C252,8.5 251.6,7.9 251.5,7.5 C251.4,7.1 251.4,6.8 251.5,6.1 C251.6,5.4 251.5,5 251.6,4.6 C251.6,4.2 251.3,3.5 251.6,3.5 C252,3.4 252.6,4 252.6,4.3 C252.6,4.6 252.7,5.1 252.8,5.5 C252.9,4.6 253.1,3.7 253.2,3.2 C253.3,2.7 253.5,0.8 253.7,0.6 C253.9,0.4 254.3,0.5 254.4,1.2 L254.4,1.6 C254.5,1.2 254.6,0.2 255,0.2 C255.4,0.2 255.5,0.6 255.5,1.5 C255.7,0.5 256.2,0.4 256.4,1 C256.6,1.6 256.4,1.4 256.5,1.8 C256.9,1.3 257.1,1.6 257.2,2.2 C257.3,2.9 257.5,4.2 257.4,4.8 C256.9,6.3 256.8,8 256.4,8.7 L256.4,8.7 Z M161.5,57.1 C165.6,57.1 169.1,55.6 173.2,52.6 L181.2,62.1 C174.9,67.6 167.3,70.3 158.9,70.3 C141.3,70.3 129.8,58.9 129.8,41.8 C129.8,24.9 141.3,12.6 157.4,12.6 C172.3,12.6 183,23.5 183,39.9 L183,46.6 L148.4,46.6 C149.9,53.3 154.4,57.1 161.5,57.1 L161.5,57.1 Z M165.4,36.9 C165.3,29.7 162.4,25.9 157,25.9 C152.2,25.9 149,29.9 148.5,36.9 L165.4,36.9 L165.4,36.9 Z M127.5,30.8 C126.4,30.4 125.4,30.3 124.3,30.3 C121.7,30.3 115.4,32.7 115.4,41.5 L115.4,68.6 L99.5,68.6 L99.5,14 L115.3,14 L115.3,24 C116.8,16.5 123.7,12.6 128.1,12.6 C131.5,12.6 134.1,13 137.8,15.3 C136.7,16.2 135.6,17.2 134.6,18.2 C131.4,21.7 129,26 127.5,30.8 L127.5,30.8 Z M79.2,59.9 L79.1,59.9 C75.3,66.7 69.9,69.9 62.3,69.9 C50.8,69.9 44,61.2 44,46 L44,14 L61.6,14 L61.6,44.8 C61.6,52.2 63.3,55.5 68.7,55.5 C72.7,55.5 75.7,53.5 77.9,49.2 L77.9,14 L95.5,14 L95.5,68.5 L79.2,68.5 L79.2,59.9 L79.2,59.9 Z M31,55.1 C34.3,55.1 37.5,54.3 40.6,52.4 C41.3,57.6 43,62 45.5,65.5 C39.8,68.7 34.3,70.3 29,70.3 C11.4,70.3 0,58.9 0,41.8 C0,25.2 12.7,12.6 28.9,12.6 C32.8,12.6 36.7,13.3 40.1,14.7 L40.1,30.6 C37.1,29.2 34,28.4 31,28.4 C23.5,28.4 18.7,33.5 18.7,41.7 C18.7,50 23.3,55.1 31,55.1 L31,55.1 Z" id="Shape" fill="#544B43" sketch:type="MSShapeGroup"></path>
    </g>
</svg>