<?xml version="1.0" encoding="UTF-8" standalone="no"?>
<svg width="16px" height="16px" viewBox="0 0 16 16" version="1.1" xmlns="http://www.w3.org/2000/svg" xmlns:xlink="http://www.w3.org/1999/xlink" xmlns:sketch="http://www.bohemiancoding.com/sketch/ns">
    <!-- Generator: Sketch 3.0.4 (8053) - http://www.bohemiancoding.com/sketch -->
    <title>Imported Layers</title>
    <desc>Created with Sketch.</desc>
    <defs></defs>
    <g id="Page-1" stroke="none" stroke-width="1" fill="none" fill-rule="evenodd" sketch:type="MSPage">
        <g id="Static" sketch:type="MSArtboardGroup" transform="translate(-966.000000, -1561.000000)" fill="#1871B0">
            <g id="//-Body" sketch:type="MSLayerGroup" transform="translate(169.000000, 179.000000)">
                <g id="::-Aside" transform="translate(751.000000, 683.000000)" sketch:type="MSShapeGroup">
                    <g id="Funding-Meter" transform="translate(12.000000, 501.000000)">
                        <g id="Procedures-Link" transform="translate(0.000000, 180.000000)">
                            <path d="M42,18 C37.5817778,18 34,21.5327123 34,25.890411 C34,30.2483288 37.5817778,33.7808219 42,33.7808219 C46.4182222,33.7808219 50,30.2483288 50,25.890411 C50,21.5327123 46.4182222,18 42,18 L42,18 Z M43.0266667,20.4440548 C43.3471111,20.4427397 43.6006667,20.5646027 43.7637778,20.7552877 C43.9275556,20.9453151 44.0024444,21.1958356 44.0024444,21.4524932 C44.0024444,22.1183562 43.4662222,22.7484932 42.7175556,22.7509041 L42.6986667,22.7509041 C42.1117778,22.7509041 41.7453333,22.3213151 41.7413333,21.6964384 C41.7424444,21.1579178 42.1813333,20.4473425 43.0266667,20.4440548 L43.0266667,20.4440548 Z M43.9953333,29.2892055 C42.8764444,30.4942466 41.4964444,31.213589 40.9713333,31.2201644 L40.968,31.2201644 C40.7902222,31.2201644 40.6057778,31.1736986 40.4722222,31.0305753 C40.338,30.8863562 40.2686667,30.6667397 40.2686667,30.3533151 C40.2686667,30.1135342 40.3088889,29.5956164 40.3997778,29.2212603 L41.2024444,25.8106301 C41.2413333,25.6203836 41.2628889,25.4866849 41.264,25.4176438 C41.1251111,25.4671781 40.5146667,25.9079452 40.2133333,26.1391781 L40.1066667,26.217863 L39.7942222,25.3808219 L39.8555556,25.3247123 C40.9851111,24.2943562 42.3424444,23.4689315 42.9651111,23.4610411 C43.1428889,23.458411 43.2977778,23.5480548 43.3811111,23.6927123 C43.4666667,23.8353973 43.5002222,24.0210411 43.5002222,24.2441644 C43.5002222,24.4874521 43.4586667,24.9952877 43.3817778,25.3247123 L42.5011111,28.8598356 C42.4591111,29.0299178 42.4422222,29.1539726 42.4422222,29.2324384 C42.4417778,29.2769315 42.4482222,29.3056438 42.4524444,29.3192329 C42.5464444,29.3080548 43.1715556,28.8852603 43.5764444,28.5179178 L43.672,28.4322192 L44.006,29.1550685 L44.0528889,29.225863 L43.9953333,29.2892055 L43.9953333,29.2892055 Z" id="Imported-Layers"></path>
                        </g>
                    </g>
                </g>
            </g>
        </g>
    </g>
</svg>