<?xml version="1.0" encoding="UTF-8" standalone="no"?>
<svg width="15px" height="11px" viewBox="0 0 15 11" version="1.1" xmlns="http://www.w3.org/2000/svg" xmlns:xlink="http://www.w3.org/1999/xlink" xmlns:sketch="http://www.bohemiancoding.com/sketch/ns">
    <!-- Generator: Sketch 3.0.3 (7891) - http://www.bohemiancoding.com/sketch -->
    <title>Mail Icon</title>
    <desc>Created with Sketch.</desc>
    <defs></defs>
    <g id="Welcome" stroke="none" stroke-width="1" fill="none" fill-rule="evenodd" sketch:type="MSPage">
        <g id="Static" sketch:type="MSArtboardGroup" transform="translate(-968.000000, -1035.000000)" fill="#A79D83">
            <g id="//-Body" sketch:type="MSLayerGroup" transform="translate(169.000000, 179.000000)">
                <g id="::-Aside-+-::-Primary" transform="translate(0.000000, 683.000000)" sketch:type="MSShapeGroup">
                    <g id="::-Aside" transform="translate(751.000000, 0.000000)">
                        <g class="ck-profile-donate-svg" transform="translate(13.000000, 0.000000)">
                            <g id="Email" transform="translate(21.000000, 154.000000)">
                                <path style="fill: #198C45;" d="M24.3556772,24.1414318 L21.4995841,26.5996412 L18.6649106,24.1602486 L14.0469985,20 C14.0191321,20.0910205 14,20.1861981 14,20.286627 L14,29.0493173 C14,29.1062051 14.0066547,29.1611238 14.0168446,29.2147296 C14.0900458,29.658892 14.4577152,30 14.8998336,30 L28.0933038,30 C28.4907112,30 28.8257313,29.7234378 28.9436434,29.3453527 C28.9796201,29.2552074 29,29.1549974 29,29.0493173 L29,20.286627 C29,20.1861981 28.9810758,20.0910205 28.9530015,20 L24.3556772,24.1414318 Z M21.4598706,24.6360479 L23.1759691,23.1881456 L27.5200846,19.3321571 C27.448749,19.3102308 27.3746556,19.294787 27.2967013,19.294787 L15.6237754,19.294787 C15.5456372,19.294787 15.4715438,19.3102308 15.4000244,19.3323478 L19.7467139,23.1904336 L21.4598706,24.6360479 Z" id="Mail-Icon"></path>
                            </g>
                        </g>
                    </g>
                </g>
            </g>
        </g>
    </g>
</svg>