<?xml version="1.0" encoding="UTF-8" standalone="no"?>
<svg width="17px" height="14px" viewBox="0 0 17 14" version="1.1" xmlns="http://www.w3.org/2000/svg" xmlns:xlink="http://www.w3.org/1999/xlink" xmlns:sketch="http://www.bohemiancoding.com/sketch/ns">
    <!-- Generator: Sketch 3.0.4 (8053) - http://www.bohemiancoding.com/sketch -->
    <title>options-icon</title>
    <desc>Created with Sketch.</desc>
    <defs></defs>
    <g id="Page-1" stroke="none" stroke-width="1" fill="none" fill-rule="evenodd" sketch:type="MSPage">
        <path d="M4.2700274,0.00554098361 L15.8023014,0.00554098361 L15.8023014,2.46957377 L4.2700274,2.46957377 L4.2700274,0.00554098361 Z M4.2700274,5.24560656 L15.8023014,5.24560656 L15.8023014,7.70985246 L4.2700274,7.70985246 L4.2700274,5.24560656 Z M4.2700274,10.5140164 L15.8023014,10.5140164 L15.8023014,12.9780492 L4.2700274,12.9780492 L4.2700274,10.5140164 Z M1.28131507,0.00554098361 C0.582575342,0.00554098361 0.0164383562,0.556229508 0.0164383562,1.23563934 C0.0164383562,1.91462295 0.582575342,2.46552459 1.28131507,2.46552459 C1.97983562,2.46552459 2.54619178,1.91462295 2.54619178,1.23563934 C2.54619178,0.556229508 1.97983562,0.00554098361 1.28131507,0.00554098361 Z M1.28131507,5.23921311 C0.582575342,5.23921311 0.0164383562,5.78990164 0.0164383562,6.46931148 C0.0164383562,7.14829508 0.582575342,7.69898361 1.28131507,7.69898361 C1.97983562,7.69898361 2.54619178,7.14829508 2.54619178,6.46931148 C2.54619178,5.78990164 1.97983562,5.23921311 1.28131507,5.23921311 Z M1.28131507,10.4959016 C0.582575342,10.4959016 0.0164383562,11.0465902 0.0164383562,11.726 C0.0164383562,12.4049836 0.582575342,12.9556721 1.28131507,12.9556721 C1.97983562,12.9556721 2.54619178,12.4049836 2.54619178,11.726 C2.54619178,11.0465902 1.97983562,10.4959016 1.28131507,10.4959016 Z" id="options-icon" fill="#988C80" sketch:type="MSShapeGroup"></path>
    </g>
</svg>