<?xml version="1.0" encoding="UTF-8" standalone="no"?>
<svg width="39px" height="33px" viewBox="0 0 39 33" version="1.1" xmlns="http://www.w3.org/2000/svg" xmlns:xlink="http://www.w3.org/1999/xlink" xmlns:sketch="http://www.bohemiancoding.com/sketch/ns">
    <!-- Generator: Sketch 3.0.4 (8053) - http://www.bohemiancoding.com/sketch -->
    <title>Photos Icon</title>
    <desc>Created with Sketch.</desc>
    <defs></defs>
    <g id="Page-1" stroke="none" stroke-width="1" fill="none" fill-rule="evenodd" sketch:type="MSPage">
        <g id="Static" sketch:type="MSArtboardGroup" transform="translate(-207.000000, -777.000000)" fill="#FFFFFF">
            <path d="M237.710187,784.884851 L237.710187,777.026 L207,777.026 L207,800.26184 L214.741898,800.26184 L214.741898,808.120692 L245.452085,808.120692 L245.452085,784.884851 L237.710187,784.884851 L237.710187,784.884851 Z M210.842378,796.419462 L210.842378,780.868378 L233.868343,780.868378 L233.868343,784.884851 L214.741898,784.884851 L214.741898,796.419462 L210.842378,796.419462 L210.842378,796.419462 Z M218.584276,788.72723 L241.610241,788.72723 L241.610241,804.27778 L218.584276,804.27778 L218.584276,788.72723 Z M221.975515,802.039876 L238.378698,802.039876 L236.158356,794.831486 L234.493012,795.385791 L233.050154,792.664943 L228.387331,799.39643 L225.889315,797.786968 L221.975515,802.039876 Z M224.04279,795.480894 C225.131268,795.480894 226.013227,794.598935 226.013227,793.510804 C226.013227,792.421979 225.131268,791.54002 224.04279,791.54002 C222.954659,791.54002 222.072353,792.421979 222.072353,793.510804 C222.072353,794.598935 222.954659,795.480894 224.04279,795.480894 Z" id="Photos-Icon" sketch:type="MSShapeGroup"></path>
        </g>
    </g>
</svg>