<?xml version="1.0" encoding="utf-8"?>
<!-- Generator: Adobe Illustrator 18.0.0, SVG Export Plug-In . SVG Version: 6.00 Build 0)  -->
<!DOCTYPE svg PUBLIC "-//W3C//DTD SVG 1.1//EN" "http://www.w3.org/Graphics/SVG/1.1/DTD/svg11.dtd">
<svg  version="1.1" id="Layer_1" xmlns="http://www.w3.org/2000/svg" xmlns:xlink="http://www.w3.org/1999/xlink" x="0px" y="0px"
	 viewBox="0 334.64 612 122.268" enable-background="new 0 334.64 612 122.268" xml:space="preserve">
<g>
	<path fill="#443d37" d="M60.337,335.433C27.009,335.433,0,362.45,0,395.774s27.009,60.342,60.337,60.342
		c33.324,0,60.342-27.017,60.342-60.342C120.679,362.45,93.666,335.433,60.337,335.433 M64.081,373.724
		c-1.176-1.678-3.36-2.521-5.38-2.521h-0.675c-3.36,0.333-6.387,2.184-7.226,5.886c-0.169,0.839-0.675,1.682-1.678,1.847
		l-9.423-1.176c-0.67-0.169-1.682-0.675-1.341-2.02c2.007-10.591,11.101-14.289,19.668-14.794h2.02
		c4.709,0,10.764,1.345,14.626,4.878c4.709,4.368,4.199,10.258,4.199,16.641V397.6c0,4.537,1.855,6.556,3.702,8.909
		c0.506,0.839,0.67,1.851-0.169,2.525c-1.847,1.678-5.376,4.705-7.395,6.387c-0.675,0.502-1.514,0.502-2.357,0.164
		c-3.196-2.69-3.698-3.866-5.544-6.387c-3.2,3.36-5.89,5.211-9.082,6.223c-2.015,0.502-4.204,0.839-6.889,0.839
		c-8.074,0-14.461-5.043-14.461-14.963c0-7.901,4.199-13.281,10.422-15.802c3.192-1.518,7.062-2.188,10.928-2.694
		c2.525-0.337,5.043-0.502,7.231-0.666v-1.349C65.253,378.433,65.426,375.739,64.081,373.724 M89.543,422.353
		c-0.978,0.788-2.024,1.488-3.065,2.112l-0.046,0.03c-7.943,4.996-18.184,8.053-27.245,8.255c-0.278,0.004-0.561,0.008-0.835,0.008
		c-14.23-0.004-24.816-7.791-34.467-16.177c-0.472-0.371-0.801-0.936-0.801-1.564c-0.004-0.481,0.202-0.953,0.548-1.273
		c0.342-0.329,0.818-0.498,1.286-0.498c0.363,0,0.717,0.097,1.084,0.283c10.287,5.713,20.482,11.506,32.983,11.502
		c0.278,0,0.573-0.004,0.864-0.008c7.947-0.173,16.536-2.112,24.711-5.43v-0.008l0.75-0.299l0.578-0.24
		c0.396-0.173,0.814-0.354,1.218-0.523c0.371-0.169,0.759-0.257,1.134-0.253c1.202,0,2.306,0.881,2.327,2.188
		C90.571,421.194,90.154,421.898,89.543,422.353 M94.21,425.806c-0.396,0.312-0.852,0.523-1.396,0.527h-0.008
		c-0.367,0-0.793-0.122-1.121-0.438c-0.346-0.316-0.498-0.788-0.493-1.181c0-0.266,0.059-0.51,0.139-0.738
		c0.375-0.974,0.932-2.437,1.391-3.9c0.46-1.455,0.805-2.956,0.797-3.757c0.004-0.215-0.021-0.363-0.038-0.422
		c-0.013-0.013-0.034-0.021-0.067-0.038c-0.089-0.038-0.249-0.093-0.455-0.139c-0.422-0.089-1.033-0.139-1.716-0.139
		c-0.965,0-2.07,0.089-3.124,0.202c-1.218,0.177-2.264,0.278-2.981,0.43l-0.059,0.008l-0.067,0.008
		c-0.076,0.004-0.152,0.008-0.24,0.008c-0.367,0-0.776-0.093-1.13-0.379c-0.358-0.282-0.578-0.772-0.561-1.197
		c0.021-0.772,0.455-1.273,0.961-1.661c0.818-0.594,1.703-1.092,2.681-1.497l-0.008-0.038l0.826-0.27l0.025-0.004l1.471-0.493v0.097
		c1.455-0.316,2.909-0.443,4.216-0.447c1.834,0.008,3.352,0.228,4.389,0.628c0.354,0.152,0.675,0.287,1.012,0.662l0.042,0.046
		l0.034,0.046c0.329,0.502,0.502,1.105,0.531,1.901v0.004l0.008,0.476C99.219,417.121,97.929,422.458,94.21,425.806"/>
	<path fill="#443d37" d="M65.253,389.863c-2.525,0-5.043,0.164-7.231,0.67c-4.035,1.176-7.226,3.702-7.226,9.082
		c0,4.203,2.184,7.058,5.882,7.058c0.506,0,1.008-0.164,1.345-0.164c2.188-0.506,4.208-2.02,5.38-4.372
		c2.02-3.369,1.847-6.387,1.847-10.254v-2.02H65.253z"/>
</g>
<path fill="#443d37" d="M551.001,334.64c-33.695,0-61.012,27.371-61.012,61.134s27.316,61.134,61.012,61.134
	c33.687,0,61.004-27.371,61.004-61.134C612,362.011,584.688,334.64,551.001,334.64z M515.425,402.411v-11.455
	c0-0.89,0.725-1.273,1.615-1.273h16.173l-8.892,14.23h-7.281C516.15,403.912,515.425,403.3,515.425,402.411z M527.572,420.523
	l-5.435,3.706c-0.742,0.502-1.261,0.186-1.159-0.7l0.734-6.341c0.101-0.885,0.814-1.244,1.581-0.805l4.216,2.42
	C528.28,419.242,528.305,420.022,527.572,420.523z M528.879,416.948l-4.208-2.42c-0.776-0.438-1.046-1.434-0.603-2.205
	l19.517-33.986c0.443-0.772,1.433-1.041,2.205-0.594l4.208,2.412c0.776,0.451,1.046,1.442,0.603,2.209l-19.508,33.991
	C530.649,417.125,529.646,417.391,528.879,416.948z M542.105,403.912l9.048-14.23h4.284l6.029,14.23H542.105z M567.92,406.129
	c-1.686-0.843-10.089-20.233-12.244-25.293c-2.15-5.059-8.656-18.526-6.556-19.576c1.505-0.755,6.877,9.853,10.903,16.22
	c4.026,6.371,12.442,22.784,13.471,24.652c1.037,1.876-0.987,3.436-2.108,3.904C570.26,406.505,569.611,406.973,567.92,406.129z
	 M573.447,415.046l-2.547-4.014c-0.519-0.831-0.253-1.864,0.603-2.306l2.42-1.244c0.847-0.434,1.918-0.08,2.37,0.793l2.011,3.854
	c0.451,0.873,0.139,1.99-0.683,2.479l-1.729,1.037C575.075,416.143,573.966,415.873,573.447,415.046z M582.786,425.566
	c-0.535-1.699-4.579-1.813-6.4-4.368c-1.813-2.555-0.312-3.866,0.32-4.473C584.06,412.58,582.786,425.566,582.786,425.566z
	 M586.564,402.411c0,0.89-0.725,1.501-1.615,1.501H577.9l-7.264-14.23h14.31c0.89,0,1.615,0.384,1.615,1.273v11.455H586.564z"/>
<path fill="#443d37" d="M305.667,336.166c-32.92,0-59.604,26.688-59.604,59.6c0,32.924,26.684,59.612,59.604,59.612
	c32.924,0,59.604-26.688,59.604-59.612C365.271,362.855,338.591,336.166,305.667,336.166 M322.962,371.498h-8.365
	c-1.657,0-3.331,1.733-3.331,3.019v8.601h11.679c-0.468,6.594-1.429,12.627-1.429,12.627h-10.304v37.385h-15.364v-37.385h-7.471
	v-12.577h7.471v-10.287c0-1.885-0.379-14.474,15.735-14.474h11.375v13.091H322.962z"/>
<path fill="#443d37" d="M428.332,335.323c-33.383,0-60.451,27.068-60.451,60.451s27.068,60.451,60.451,60.451
	c30.445,0,55.615-22.506,59.823-51.779c0.405-1.994,0.594-4.052,0.561-6.177c0.042-0.822,0.067-1.657,0.067-2.496
	C488.783,362.391,461.724,335.323,428.332,335.323z M456.154,384.804c0.025,0.561,0.034,1.121,0.034,1.686
	c0,17.261-13.133,37.161-37.153,37.161c-7.378,0-14.238-2.159-20.018-5.873c1.02,0.122,2.057,0.181,3.112,0.181
	c6.118,0,11.75-2.083,16.224-5.591c-5.717-0.097-10.54-3.879-12.206-9.065c0.797,0.156,1.623,0.24,2.462,0.24
	c1.185,0,2.34-0.164,3.44-0.46c-5.979-1.202-10.481-6.48-10.481-12.804c0-0.067,0-0.114,0-0.164
	c1.762,0.974,3.778,1.564,5.919,1.632c-3.508-2.348-5.814-6.341-5.814-10.869c0-2.395,0.641-4.638,1.771-6.573
	c6.438,7.905,16.068,13.1,26.92,13.652c-0.223-0.957-0.337-1.961-0.337-2.981c0-7.214,5.848-13.062,13.062-13.062
	c3.757,0,7.146,1.589,9.529,4.123c2.981-0.586,5.772-1.67,8.302-3.171c-0.978,3.048-3.048,5.607-5.747,7.222
	c2.644-0.304,5.165-1.012,7.501-2.049C460.914,380.664,458.709,382.962,456.154,384.804z"/>
<g>
	<path fill="#443d37" d="M175.35,418.921c0,2.003,0.114,2.998-0.008,3.352c-0.388,1.071-2.142,2.205-2.825,0.114
		c-0.114-0.371-0.013-1.476-0.013-3.369l-0.021-13.901h-4.768l0.017,13.677c0,2.1-0.051,3.664,0.017,4.372
		c0.114,1.252,0.072,2.719,1.227,3.558c2.159,1.564,6.29-0.24,7.319-2.471v2.85h3.845v-21.987h-4.79V418.921z"/>
	<polygon fill="#443d37" points="168.655,397.436 153.333,397.41 153.333,401.175 158.114,401.192 158.114,427.122 162.908,427.122 
		162.908,401.264 168.655,401.264 	"/>
	<path fill="#443d37" d="M182.155,380.727c1.164,0,2.121-1.062,2.121-2.357v-12.159c0-1.294-0.957-2.357-2.121-2.357
		c-1.164,0-2.121,1.062-2.121,2.357v12.164C180.034,379.664,180.991,380.727,182.155,380.727z"/>
	<path fill="#443d37" d="M187.779,405.973l0.017-8.546l-4.785,0.008l-0.03,29.488l3.942-0.059l0.358-1.834
		c5.034,4.646,8.196,1.467,8.184-4.111l-0.008-11.489C195.457,405.054,192.198,402.436,187.779,405.973z M191.911,421.763
		c0,0.949-0.944,1.729-2.1,1.729c-1.151,0-2.091-0.784-2.091-1.729v-12.906c0-0.957,0.944-1.737,2.091-1.737
		c1.155,0,2.1,0.784,2.1,1.737V421.763z"/>
	<path fill="#443d37" d="M206.874,419.423c-0.004,0.139-0.008,0.304-0.008,0.485v2.02c0,1.079-0.885,1.961-1.965,1.961h-0.708
		c-1.079,0-1.961-0.881-1.961-1.961v-0.223v-2.213v-2.867h8.226v-3.12c0-2.272-0.059-4.553-0.245-5.856
		c-0.59-4.115-6.333-4.777-9.233-2.669c-0.915,0.666-1.606,1.547-2.015,2.728c-0.409,1.193-0.616,2.808-0.616,4.857v6.851
		c0,11.396,13.753,9.781,12.113-0.017L206.874,419.423z M202.316,410.16c0-1.176,0.965-2.142,2.138-2.142h0.291
		c1.176,0,2.142,0.966,2.142,2.142l-0.051,2.652h-4.537L202.316,410.16z"/>
	<path fill="#443d37" d="M182.998,335.091c-33.514,0-60.679,27.165-60.679,60.675c0,33.514,27.16,60.692,60.679,60.692
		c33.514,0,60.683-27.173,60.683-60.692C243.685,362.256,216.516,335.091,182.998,335.091z M191.481,360.949h4.389v17.788
		c0,0.966,0.793,1.754,1.754,1.754c0.957,0,1.745-0.793,1.745-1.754v-17.788h4.208v22.86h-5.342l0.089-1.893
		c-0.363,0.767-0.805,1.341-1.337,1.729c-0.531,0.388-1.147,0.578-1.842,0.578c-0.788,0-1.442-0.181-1.961-0.552
		c-0.519-0.371-0.902-0.856-1.151-1.459c-0.253-0.616-0.401-1.252-0.46-1.91c-0.059-0.666-0.093-1.969-0.093-3.938L191.481,360.949
		L191.481,360.949z M178.356,361.185c0.949-0.75,2.15-1.13,3.622-1.13c1.235,0,2.289,0.249,3.179,0.725
		c0.89,0.476,1.573,1.105,2.049,1.868c0.481,0.776,0.81,1.573,0.987,2.386c0.181,0.822,0.27,2.066,0.27,3.74v5.78
		c0,2.125-0.089,3.681-0.257,4.676c-0.16,0.987-0.51,1.91-1.05,2.774c-0.535,0.847-1.223,1.493-2.053,1.893
		c-0.847,0.422-1.813,0.616-2.901,0.616c-1.218,0-2.243-0.164-3.09-0.519c-0.843-0.354-1.505-0.881-1.969-1.59
		c-0.472-0.7-0.801-1.564-0.999-2.563c-0.207-0.995-0.304-2.504-0.304-4.503v-6.05c0-2.192,0.181-3.904,0.544-5.139
		C176.758,362.926,177.407,361.927,178.356,361.185z M164.358,351.939l3.208,11.181l3.171-11.147h5.515l-5.957,15.014l-0.004,17.539
		h-5.043l-0.008-17.531l-6.333-15.052h5.451V351.939z M217.461,424.453c0,5.89-5.08,10.705-11.274,10.705h-46.369
		c-6.21,0-11.278-4.815-11.278-10.705v-24.546c0-5.877,5.068-10.696,11.278-10.696h46.369c6.194,0,11.274,4.819,11.274,10.696
		V424.453z"/>
</g>
</svg>
