<?xml version="1.0" encoding="UTF-8" standalone="no"?>
<svg width="612px" height="123px" viewBox="0 0 612 123" version="1.1" xmlns="http://www.w3.org/2000/svg" xmlns:xlink="http://www.w3.org/1999/xlink" xmlns:sketch="http://www.bohemiancoding.com/sketch/ns">
    <!-- Generator: Sketch 3.0.4 (8053) - http://www.bohemiancoding.com/sketch -->
    <title>social-media-icons</title>
    <desc>Created with Sketch.</desc>
    <defs></defs>
    <g id="Page-1" stroke="none" stroke-width="1" fill="none" fill-rule="evenodd" sketch:type="MSPage">
        <g id="social-media-icons" sketch:type="MSLayerGroup" transform="translate(0.000000, 1.000000)" fill="#443D37">
            <path d="M551.001,-0.36 C517.306,-0.36 489.989,27.011 489.989,60.774 C489.989,94.537 517.305,121.908 551.001,121.908 C584.688,121.908 612.005,94.537 612.005,60.774 C612,27.011 584.688,-0.36 551.001,-0.36 L551.001,-0.36 Z M515.425,67.411 L515.425,55.956 C515.425,55.066 516.15,54.683 517.04,54.683 L533.213,54.683 L524.321,68.913 L517.04,68.913 C516.15,68.912 515.425,68.3 515.425,67.411 L515.425,67.411 Z M527.572,85.523 L522.137,89.229 C521.395,89.731 520.876,89.415 520.978,88.529 L521.712,82.188 C521.813,81.303 522.526,80.944 523.293,81.383 L527.509,83.803 C528.28,84.242 528.305,85.022 527.572,85.523 L527.572,85.523 Z M528.879,81.948 L524.671,79.528 C523.895,79.09 523.625,78.094 524.068,77.323 L543.585,43.337 C544.028,42.565 545.018,42.296 545.79,42.743 L549.998,45.155 C550.774,45.606 551.044,46.597 550.601,47.364 L531.093,81.355 C530.649,82.125 529.646,82.391 528.879,81.948 L528.879,81.948 Z M542.105,68.912 L551.153,54.682 L555.437,54.682 L561.466,68.912 L542.105,68.912 L542.105,68.912 Z M567.92,71.129 C566.234,70.286 557.831,50.896 555.676,45.836 C553.526,40.777 547.02,27.31 549.12,26.26 C550.625,25.505 555.997,36.113 560.023,42.48 C564.049,48.851 572.465,65.264 573.494,67.132 C574.531,69.008 572.507,70.568 571.386,71.036 C570.26,71.505 569.611,71.973 567.92,71.129 L567.92,71.129 Z M573.447,80.046 L570.9,76.032 C570.381,75.201 570.647,74.168 571.503,73.726 L573.923,72.482 C574.77,72.048 575.841,72.402 576.293,73.275 L578.304,77.129 C578.755,78.002 578.443,79.119 577.621,79.608 L575.892,80.645 C575.075,81.143 573.966,80.873 573.447,80.046 L573.447,80.046 Z M582.786,90.566 C582.251,88.867 578.207,88.753 576.386,86.198 C574.573,83.643 576.074,82.332 576.706,81.725 C584.06,77.58 582.786,90.566 582.786,90.566 L582.786,90.566 Z M586.564,67.411 C586.564,68.301 585.839,68.912 584.949,68.912 L577.9,68.912 L570.636,54.682 L584.946,54.682 C585.836,54.682 586.561,55.066 586.561,55.955 L586.561,67.41 L586.564,67.41 L586.564,67.411 Z" id="Appstore-Icon" sketch:type="MSShapeGroup"></path>
            <path d="M428.332,0.323 C394.949,0.323 367.881,27.391 367.881,60.774 C367.881,94.157 394.949,121.225 428.332,121.225 C458.777,121.225 483.947,98.719 488.155,69.446 C488.56,67.452 488.749,65.394 488.716,63.269 C488.758,62.447 488.783,61.612 488.783,60.773 C488.783,27.391 461.724,0.323 428.332,0.323 L428.332,0.323 Z M456.154,49.804 C456.179,50.365 456.188,50.925 456.188,51.49 C456.188,68.751 443.055,88.651 419.035,88.651 C411.657,88.651 404.797,86.492 399.017,82.778 C400.037,82.9 401.074,82.959 402.129,82.959 C408.247,82.959 413.879,80.876 418.353,77.368 C412.636,77.271 407.813,73.489 406.147,68.303 C406.944,68.459 407.77,68.543 408.609,68.543 C409.794,68.543 410.949,68.379 412.049,68.083 C406.07,66.881 401.568,61.603 401.568,55.279 L401.568,55.115 C403.33,56.089 405.346,56.679 407.487,56.747 C403.979,54.399 401.673,50.406 401.673,45.878 C401.673,43.483 402.314,41.24 403.444,39.305 C409.882,47.21 419.512,52.405 430.364,52.957 C430.141,52 430.027,50.996 430.027,49.976 C430.027,42.762 435.875,36.914 443.089,36.914 C446.846,36.914 450.235,38.503 452.618,41.037 C455.599,40.451 458.39,39.367 460.92,37.866 C459.942,40.914 457.872,43.473 455.173,45.088 C457.817,44.784 460.338,44.076 462.674,43.039 C460.914,45.664 458.709,47.962 456.154,49.804 L456.154,49.804 Z" id="Twitter-Icon" sketch:type="MSShapeGroup"></path>
            <path d="M305.667,1.166 C272.747,1.166 246.063,27.854 246.063,60.766 C246.063,93.69 272.747,120.378 305.667,120.378 C338.591,120.378 365.271,93.69 365.271,60.766 C365.271,27.855 338.591,1.166 305.667,1.166 L305.667,1.166 Z M322.962,36.498 L314.597,36.498 C312.94,36.498 311.266,38.231 311.266,39.517 L311.266,48.118 L322.945,48.118 C322.477,54.712 321.516,60.745 321.516,60.745 L311.212,60.745 L311.212,98.13 L295.848,98.13 L295.848,60.745 L288.377,60.745 L288.377,48.168 L295.848,48.168 L295.848,37.881 C295.848,35.996 295.469,23.407 311.583,23.407 L322.958,23.407 L322.958,36.498 L322.962,36.498 L322.962,36.498 Z" id="Facebook-Icon" sketch:type="MSShapeGroup"></path>
            <g id="Youtube-Icon" transform="translate(122.000000, 0.000000)" sketch:type="MSShapeGroup">
                <path d="M53.35,83.921 C53.35,85.924 53.464,86.919 53.342,87.273 C52.954,88.344 51.2,89.478 50.517,87.387 C50.403,87.016 50.504,85.911 50.504,84.018 L50.483,70.117 L45.715,70.117 L45.732,83.794 C45.732,85.894 45.681,87.458 45.749,88.166 C45.863,89.418 45.821,90.885 46.976,91.724 C49.135,93.288 53.266,91.484 54.295,89.253 L54.295,92.103 L58.14,92.103 L58.14,70.116 L53.35,70.116 L53.35,83.921 L53.35,83.921 Z" id="Shape"></path>
                <path d="M46.655,62.436 L31.333,62.41 L31.333,66.175 L36.114,66.192 L36.114,92.122 L40.908,92.122 L40.908,66.264 L46.655,66.264 L46.655,62.436 Z" id="Shape"></path>
                <path d="M60.155,45.727 C61.319,45.727 62.276,44.665 62.276,43.37 L62.276,31.211 C62.276,29.917 61.319,28.854 60.155,28.854 C58.991,28.854 58.034,29.916 58.034,31.211 L58.034,43.375 C58.034,44.664 58.991,45.727 60.155,45.727 L60.155,45.727 Z" id="Shape"></path>
                <path d="M65.779,70.973 L65.796,62.427 L61.011,62.435 L60.981,91.923 L64.923,91.864 L65.281,90.03 C70.315,94.676 73.477,91.497 73.465,85.919 L73.457,74.43 C73.457,70.054 70.198,67.436 65.779,70.973 L65.779,70.973 Z M69.911,86.763 C69.911,87.712 68.967,88.492 67.811,88.492 C66.66,88.492 65.72,87.708 65.72,86.763 L65.72,73.857 C65.72,72.9 66.664,72.12 67.811,72.12 C68.966,72.12 69.911,72.904 69.911,73.857 L69.911,86.763 L69.911,86.763 Z" id="Shape"></path>
                <path d="M84.874,84.423 C84.87,84.562 84.866,84.727 84.866,84.908 L84.866,86.928 C84.866,88.007 83.981,88.889 82.901,88.889 L82.193,88.889 C81.114,88.889 80.232,88.008 80.232,86.928 L80.232,86.705 L80.232,84.492 L80.232,81.625 L88.458,81.625 L88.458,78.505 C88.458,76.233 88.399,73.952 88.213,72.649 C87.623,68.534 81.88,67.872 78.98,69.98 C78.065,70.646 77.374,71.527 76.965,72.708 C76.556,73.901 76.349,75.516 76.349,77.565 L76.349,84.416 C76.349,95.812 90.102,94.197 88.462,84.399 L84.874,84.423 L84.874,84.423 Z M80.316,75.16 C80.316,73.984 81.281,73.018 82.454,73.018 L82.745,73.018 C83.921,73.018 84.887,73.984 84.887,75.16 L84.836,77.812 L80.299,77.812 L80.316,75.16 L80.316,75.16 Z" id="Shape"></path>
                <path d="M60.998,0.091 C27.484,0.091 0.319,27.256 0.319,60.766 C0.319,94.28 27.479,121.458 60.998,121.458 C94.512,121.458 121.681,94.285 121.681,60.766 C121.685,27.256 94.516,0.091 60.998,0.091 L60.998,0.091 Z M69.481,25.949 L73.87,25.949 L73.87,43.737 C73.87,44.703 74.663,45.491 75.624,45.491 C76.581,45.491 77.369,44.698 77.369,43.737 L77.369,25.949 L81.577,25.949 L81.577,48.809 L76.235,48.809 L76.324,46.916 C75.961,47.683 75.519,48.257 74.987,48.645 C74.456,49.033 73.84,49.223 73.145,49.223 C72.357,49.223 71.703,49.042 71.184,48.671 C70.665,48.3 70.282,47.815 70.033,47.212 C69.78,46.596 69.632,45.96 69.573,45.302 C69.514,44.636 69.48,43.333 69.48,41.364 L69.481,25.949 L69.481,25.949 Z M56.356,26.185 C57.305,25.435 58.506,25.055 59.978,25.055 C61.213,25.055 62.267,25.304 63.157,25.78 C64.047,26.256 64.73,26.885 65.206,27.648 C65.687,28.424 66.016,29.221 66.193,30.034 C66.374,30.856 66.463,32.1 66.463,33.774 L66.463,39.554 C66.463,41.679 66.374,43.235 66.206,44.23 C66.046,45.217 65.696,46.14 65.156,47.004 C64.621,47.851 63.933,48.497 63.103,48.897 C62.256,49.319 61.29,49.513 60.202,49.513 C58.984,49.513 57.959,49.349 57.112,48.994 C56.269,48.64 55.607,48.113 55.143,47.404 C54.671,46.704 54.342,45.84 54.144,44.841 C53.937,43.846 53.84,42.337 53.84,40.338 L53.84,34.288 C53.84,32.096 54.021,30.384 54.384,29.149 C54.758,27.926 55.407,26.927 56.356,26.185 L56.356,26.185 Z M42.358,16.939 L45.566,28.12 L48.737,16.973 L54.252,16.973 L48.295,31.987 L48.291,49.526 L43.248,49.526 L43.24,31.995 L36.907,16.943 L42.358,16.943 L42.358,16.939 L42.358,16.939 Z M95.461,89.453 C95.461,95.343 90.381,100.158 84.187,100.158 L37.818,100.158 C31.608,100.158 26.54,95.343 26.54,89.453 L26.54,64.907 C26.54,59.03 31.608,54.211 37.818,54.211 L84.187,54.211 C90.381,54.211 95.461,59.03 95.461,64.907 L95.461,89.453 L95.461,89.453 Z" id="Shape"></path>
            </g>
            <path d="M60.337,0.433 C27.009,0.433 0,27.45 0,60.774 C0,94.098 27.009,121.116 60.337,121.116 C93.661,121.116 120.679,94.099 120.679,60.774 C120.679,27.45 93.666,0.433 60.337,0.433 M64.081,38.724 C62.905,37.046 60.721,36.203 58.701,36.203 L58.026,36.203 C54.666,36.536 51.639,38.387 50.8,42.089 C50.631,42.928 50.125,43.771 49.122,43.936 L39.699,42.76 C39.029,42.591 38.017,42.085 38.358,40.74 C40.365,30.149 49.459,26.451 58.026,25.946 L60.046,25.946 C64.755,25.946 70.81,27.291 74.672,30.824 C79.381,35.192 78.871,41.082 78.871,47.465 L78.871,62.6 C78.871,67.137 80.726,69.156 82.573,71.509 C83.079,72.348 83.243,73.36 82.404,74.034 C80.557,75.712 77.028,78.739 75.009,80.421 C74.334,80.923 73.495,80.923 72.652,80.585 C69.456,77.895 68.954,76.719 67.108,74.198 C63.908,77.558 61.218,79.409 58.026,80.421 C56.011,80.923 53.822,81.26 51.137,81.26 C43.063,81.26 36.676,76.217 36.676,66.297 C36.676,58.396 40.875,53.016 47.098,50.495 C50.29,48.977 54.16,48.307 58.026,47.801 C60.551,47.464 63.069,47.299 65.257,47.135 L65.257,45.786 C65.253,43.433 65.426,40.739 64.081,38.724 M89.543,87.353 C88.565,88.141 87.519,88.841 86.478,89.465 L86.432,89.495 C78.489,94.491 68.248,97.548 59.187,97.75 C58.909,97.754 58.626,97.758 58.352,97.758 C44.122,97.754 33.536,89.967 23.885,81.581 C23.413,81.21 23.084,80.645 23.084,80.017 C23.08,79.536 23.286,79.064 23.632,78.744 C23.974,78.415 24.45,78.246 24.918,78.246 C25.281,78.246 25.635,78.343 26.002,78.529 C36.289,84.242 46.484,90.035 58.985,90.031 C59.263,90.031 59.558,90.027 59.849,90.023 C67.796,89.85 76.385,87.911 84.56,84.593 L84.56,84.585 L85.31,84.286 L85.888,84.046 C86.284,83.873 86.702,83.692 87.106,83.523 C87.477,83.354 87.865,83.266 88.24,83.27 C89.442,83.27 90.546,84.151 90.567,85.458 C90.571,86.194 90.154,86.898 89.543,87.353 M94.21,90.806 C93.814,91.118 93.358,91.329 92.814,91.333 L92.806,91.333 C92.439,91.333 92.013,91.211 91.685,90.895 C91.339,90.579 91.187,90.107 91.192,89.714 C91.192,89.448 91.251,89.204 91.331,88.976 C91.706,88.002 92.263,86.539 92.722,85.076 C93.182,83.621 93.527,82.12 93.519,81.319 C93.523,81.104 93.498,80.956 93.481,80.897 C93.468,80.884 93.447,80.876 93.414,80.859 C93.325,80.821 93.165,80.766 92.959,80.72 C92.537,80.631 91.926,80.581 91.243,80.581 C90.278,80.581 89.173,80.67 88.119,80.783 C86.901,80.96 85.855,81.061 85.138,81.213 L85.079,81.221 L85.012,81.229 C84.936,81.233 84.86,81.237 84.772,81.237 C84.405,81.237 83.996,81.144 83.642,80.858 C83.284,80.576 83.064,80.086 83.081,79.661 C83.102,78.889 83.536,78.388 84.042,78 C84.86,77.406 85.745,76.908 86.723,76.503 L86.715,76.465 L87.541,76.195 L87.566,76.191 L89.037,75.698 L89.037,75.795 C90.492,75.479 91.946,75.352 93.253,75.348 C95.087,75.356 96.605,75.576 97.642,75.976 C97.996,76.128 98.317,76.263 98.654,76.638 L98.696,76.684 L98.73,76.73 C99.059,77.232 99.232,77.835 99.261,78.631 L99.261,78.635 L99.269,79.111 C99.219,82.121 97.929,87.458 94.21,90.806 M65.253,54.863 C62.728,54.863 60.21,55.027 58.022,55.533 C53.987,56.709 50.796,59.235 50.796,64.615 C50.796,68.818 52.98,71.673 56.678,71.673 C57.184,71.673 57.686,71.509 58.023,71.509 C60.211,71.003 62.231,69.489 63.403,67.137 C65.423,63.768 65.25,60.75 65.25,56.883 L65.25,54.863 L65.253,54.863 L65.253,54.863 Z" id="Amazon-Icon" sketch:type="MSShapeGroup"></path>
        </g>
    </g>
</svg>