<?xml version="1.0" encoding="UTF-8" standalone="no"?>
<svg width="72px" height="72px" viewBox="0 0 72 72" version="1.1" xmlns="http://www.w3.org/2000/svg" xmlns:xlink="http://www.w3.org/1999/xlink" xmlns:sketch="http://www.bohemiancoding.com/sketch/ns">
    <!-- Generator: Sketch 3.0.4 (8053) - http://www.bohemiancoding.com/sketch -->
    <title>Imported Layers</title>
    <desc>Created with Sketch.</desc>
    <defs></defs>
    <g id="Page-1" stroke="none" stroke-width="1" fill="none" fill-rule="evenodd" sketch:type="MSPage">
        <path d="M69.999,61.257 L50.722,41.983 C53.357,37.772 54.889,32.781 54.889,27.451 C54.889,12.291 42.602,0 27.445,0 C12.291,0 0,12.291 0,27.451 C0,42.604 12.291,54.889 27.445,54.889 C32.805,54.889 37.817,53.345 42.047,50.682 L61.312,69.947 C62.64,71.27 64.371,71.967 66.098,71.967 L66.119,71.967 C67.62,71.967 69.152,71.41 70.301,70.267 C71.466,69.101 72.018,67.562 72.013,66.045 C72.013,64.319 71.323,62.583 69.999,61.257 L69.999,61.257 Z M42.749,27.451 C42.734,35.88 35.881,42.739 27.445,42.754 C19.009,42.739 12.155,35.88 12.142,27.451 C12.155,19.015 19.009,12.157 27.445,12.141 C35.881,12.157 42.734,19.015 42.749,27.451 L42.749,27.451 Z" id="Imported-Layers" fill="#FFFFFF" sketch:type="MSShapeGroup"></path>
    </g>
</svg>